<svg width="128" height="118" viewBox="0 0 128 118" fill="none" xmlns="http://www.w3.org/2000/svg">
<g filter="url(#filter0_d)">
<path d="M58.8837 53.3675C58.7358 53.2558 58.7047 53.0467 58.8132 52.8966C60.3736 50.739 70.8016 35.8603 76.8576 15.6329C76.9114 15.4532 77.1003 15.351 77.2803 15.4042L104.303 23.4094C96.6781 49.1492 83.4445 67.5694 81.5583 70.1143C81.5041 70.1874 81.423 70.2358 81.333 70.2486C81.243 70.2614 81.1514 70.2378 81.0791 70.1828L69.9942 61.7632L58.8837 53.3675Z" fill="#78C2A4"/>
<path d="M104.303 23.4091L99.4903 21.9834C91.7447 47.1144 78.8595 64.9387 77.1685 67.2122L81.079 70.1825C81.1515 70.2376 81.2429 70.2613 81.3329 70.2483C81.4229 70.2355 81.5042 70.187 81.5582 70.1141C83.4446 67.5691 96.6782 49.1489 104.303 23.4091Z" fill="#66B394"/>
<path d="M47.2237 92.3588L49.9683 93.1505C72.3519 99.6083 96.4799 94.6187 114.466 79.8127C116.434 78.1932 116.522 75.2107 114.653 73.4779L114.569 73.3991C112.663 71.6317 109.842 71.3469 107.642 72.6853L98.6188 78.1745C89.4835 83.7316 78.35 84.9378 68.2366 81.4662C64.0624 80.0333 63.2732 74.4716 66.8842 71.9341L76.269 65.3389C78.0388 64.0951 78.4938 61.667 77.2943 59.8667C76.3835 58.4997 74.7272 57.8314 73.1225 58.1834L47.2235 63.8652L42.9512 68.4786V88.0576L47.2237 92.3588Z" fill="#F1D0A5"/>
<path d="M66.884 71.9336L76.2688 65.3388C77.9911 64.1285 78.4635 61.7981 77.3825 60.0146C77.1052 60.4721 76.7337 60.8818 76.2688 61.2086L66.884 67.8035C64.6543 69.3704 64.1042 72.0896 64.991 74.2785C65.3603 73.3833 65.986 72.5649 66.884 71.9336Z" fill="#F1B986"/>
<path d="M115.455 74.496C115.208 74.9351 114.881 75.3402 114.466 75.6822C99.1976 88.2508 79.5036 93.7443 60.2077 91.1673C55.1485 90.4915 51.3714 86.1722 51.3714 81.0681V62.9548L47.2231 63.8648V88.2281V92.3582L49.9678 93.15C50.4337 93.2844 50.9009 93.412 51.3683 93.5367C51.3693 93.5369 51.3703 93.5373 51.3712 93.5375C73.3556 99.3936 96.8545 94.3094 114.466 79.8124C116.087 78.4778 116.429 76.2195 115.455 74.496Z" fill="#F1B986"/>
<path d="M35.1963 100.602L14.2953 101.33C13.0408 101.374 12 100.368 12 99.113V57.681C12 56.4257 13.0408 55.4206 14.2953 55.4643L35.1963 56.1919C36.3906 56.2335 37.3372 57.2136 37.3372 58.4086V98.3852C37.3372 99.5804 36.3904 100.56 35.1963 100.602Z" fill="#DD636E"/>
<path d="M35.1962 56.1919L33.5298 56.1338V100.66L35.1962 100.602C36.3906 100.56 37.3372 99.5802 37.3372 98.3852V58.4086C37.3372 57.2136 36.3904 56.2335 35.1962 56.1919Z" fill="#C63D4F"/>
<path d="M37.3374 97.4133H44.8764C46.1727 97.4133 47.2237 96.3623 47.2237 95.066V61.7289C47.2237 60.4326 46.1727 59.3816 44.8764 59.3816H37.3374V97.4133Z" fill="#ECF4FF"/>
<path d="M44.8763 59.3816H41.4854C42.7817 59.3816 43.8327 60.4326 43.8327 61.7289V95.066C43.8327 96.3623 42.7817 97.4133 41.4854 97.4133H44.8763C46.1727 97.4133 47.2236 96.3623 47.2236 95.066V61.7289C47.2236 60.4326 46.1727 59.3816 44.8763 59.3816Z" fill="#DDEAFB"/>
<path d="M29.4277 94.1329C28.5608 94.1329 27.8584 93.4303 27.8584 92.5636V87.8801C27.8584 87.0132 28.561 86.3108 29.4277 86.3108C30.2947 86.3108 30.9971 87.0134 30.9971 87.8801V92.5636C30.9973 93.4303 30.2947 94.1329 29.4277 94.1329Z" fill="#ECF4FF"/>
<path d="M63.7264 47.5047C70.3704 47.5047 75.7564 42.1187 75.7564 35.4747C75.7564 28.8306 70.3704 23.4446 63.7264 23.4446C57.0823 23.4446 51.6963 28.8306 51.6963 35.4747C51.6963 42.1187 57.0823 47.5047 63.7264 47.5047Z" fill="#F6E266"/>
<path d="M75.7564 35.4747C75.7564 28.8306 70.3704 23.4446 63.7264 23.4446C62.7182 23.4446 61.7398 23.5703 60.8042 23.8039C66.0357 25.1096 69.9121 29.8388 69.9121 35.4747C69.9121 41.1108 66.0359 45.8397 60.8042 47.1456C61.74 47.3792 62.7184 47.5049 63.7264 47.5049C70.3704 47.5047 75.7564 42.1187 75.7564 35.4747Z" fill="#ECBE6B"/>
<path d="M93.6419 66.909C100.286 66.909 105.672 61.523 105.672 54.879C105.672 48.2349 100.286 42.8489 93.6419 42.8489C86.9979 42.8489 81.6118 48.2349 81.6118 54.879C81.6118 61.523 86.9979 66.909 93.6419 66.909Z" fill="#F6E266"/>
<path d="M93.6418 42.8489C92.6337 42.8489 91.6553 42.9746 90.7195 43.2082C95.951 44.5139 99.8274 49.2431 99.8274 54.879C99.8274 60.5151 95.9512 65.244 90.7195 66.5499C91.6553 66.7835 92.6337 66.9092 93.6418 66.9092C100.286 66.9092 105.672 61.5232 105.672 54.879C105.672 48.2351 100.286 42.8489 93.6418 42.8489Z" fill="#ECBE6B"/>
<path d="M103.97 32.1222C110.614 32.1222 116 26.7361 116 20.0921C116 13.4481 110.614 8.06201 103.97 8.06201C97.326 8.06201 91.9399 13.4481 91.9399 20.0921C91.9399 26.7361 97.326 32.1222 103.97 32.1222Z" fill="#F6E266"/>
<path d="M103.97 8.06201C102.962 8.06201 101.983 8.18775 101.048 8.42134C106.279 9.72703 110.156 14.4562 110.156 20.0921C110.156 25.7282 106.279 30.4572 101.048 31.763C101.983 31.9966 102.962 32.1224 103.97 32.1224C110.614 32.1224 116 26.7363 116 20.0921C116 13.4481 110.614 8.06201 103.97 8.06201Z" fill="#ECBE6B"/>
</g>
<defs>
<filter id="filter0_d" x="0" y="0.0620117" width="128" height="117.269" filterUnits="userSpaceOnUse" color-interpolation-filters="sRGB">
<feFlood flood-opacity="0" result="BackgroundImageFix"/>
<feColorMatrix in="SourceAlpha" type="matrix" values="0 0 0 0 0 0 0 0 0 0 0 0 0 0 0 0 0 0 127 0"/>
<feOffset dy="4"/>
<feGaussianBlur stdDeviation="6"/>
<feColorMatrix type="matrix" values="0 0 0 0 0 0 0 0 0 0 0 0 0 0 0 0 0 0 0.15 0"/>
<feBlend mode="normal" in2="BackgroundImageFix" result="effect1_dropShadow"/>
<feBlend mode="normal" in="SourceGraphic" in2="effect1_dropShadow" result="shape"/>
</filter>
</defs>
</svg>
