<svg width="105" height="105" viewBox="0 0 105 105" fill="none" xmlns="http://www.w3.org/2000/svg">
<g clip-path="url(#clip0)">
<path d="M84.9002 90.6426L81.017 78.9913C79.6599 74.9235 76.1977 71.921 71.9773 71.1527L60.7671 69.113V68.2441C62.718 67.1118 64.4155 65.5971 65.7675 63.8039H69.1542C71.9287 63.8039 74.1865 61.5461 74.1865 58.7717V38.6426C74.1865 26.6189 64.4038 16.8362 52.38 16.8362C40.3563 16.8362 30.5736 26.6189 30.5736 38.6426V50.3846C30.5736 53.6186 32.8733 56.3243 35.9229 56.955C36.8639 61.7759 39.8766 65.8554 43.9929 68.2441V69.113L32.7811 71.1527C28.5624 71.921 25.0985 74.9235 23.7431 78.9913L23.0722 81.0059L17.3589 75.2926C16.7047 74.6384 16.7047 73.5732 17.3589 72.919L23.9847 66.2949L11.5483 53.8585L4.06029 61.3465C1.84274 63.5641 0.621582 66.513 0.621582 69.6497C0.621582 72.7865 1.84274 75.7337 4.06029 77.9513L26.7306 100.622C28.9482 102.839 31.8971 104.062 35.0338 104.062C38.1706 104.062 41.1178 102.839 43.2834 100.672L51.4541 93.1856L48.9061 90.6426H84.9002ZM70.8317 58.7717C70.8317 59.6976 70.0785 60.4491 69.1542 60.4491H67.7435C68.23 59.3403 68.599 58.1712 68.8372 56.955C69.5551 56.8057 70.216 56.5206 70.8317 56.1616V58.7717ZM69.1542 53.2731V47.4961C70.1523 48.0781 70.8317 49.1483 70.8317 50.3846C70.8317 51.6208 70.1523 52.691 69.1542 53.2731ZM35.6058 53.2731C34.6078 52.691 33.9284 51.6208 33.9284 50.3846C33.9284 49.1483 34.6078 48.0781 35.6058 47.4961V53.2731ZM35.6058 41.9975V43.9131C35.0087 44.0691 34.4484 44.3039 33.9284 44.6075V38.6426C33.9284 28.4691 42.2065 20.191 52.38 20.191C62.5536 20.191 70.8317 28.4691 70.8317 38.6426V44.6075C70.3117 44.3039 69.7514 44.0674 69.1542 43.9131V41.9975H67.4768C62.5167 41.9975 57.8535 40.0651 54.3443 36.5576L52.38 34.5933L50.4158 36.5576C46.9066 40.0651 42.2434 41.9975 37.2833 41.9975H35.6058ZM38.9607 53.7394V45.2886C43.998 44.9095 48.6948 42.8312 52.38 39.327C56.0653 42.8312 60.7621 44.9111 65.7994 45.2886V53.7394C65.7994 56.1851 65.1318 58.4731 63.9844 60.4491H52.38V63.8039H61.2268C58.8616 65.8856 55.7701 67.1588 52.38 67.1588C44.9809 67.1588 38.9607 61.1385 38.9607 53.7394ZM57.4123 69.7403V69.8191L52.38 74.8514L47.3478 69.8191V69.7403C48.938 70.2402 50.6271 70.5136 52.38 70.5136C54.1329 70.5136 55.8221 70.2402 57.4123 69.7403ZM26.9235 80.0514C27.8914 77.1461 30.3656 75.0007 33.3799 74.4505L45.1051 72.3202L52.38 79.5952L59.6533 72.3219L71.3768 74.4522C74.3912 75.0024 76.8653 77.1461 77.8332 80.0531L80.247 87.2878H45.5513L39.0177 80.7542L31.7578 87.3214C31.1255 87.9571 30.02 87.9571 29.386 87.3214L25.7225 83.6579L26.9235 80.0514ZM11.5466 58.6022L19.2393 66.2949L17.4176 68.1166L9.72494 60.4239L11.5466 58.6022ZM40.9602 98.2531C39.3767 99.8332 37.2698 100.707 35.0305 100.707C32.7911 100.707 30.6843 99.8332 29.0991 98.2497L6.42881 75.5811C4.84532 73.9976 3.97307 71.8908 3.97307 69.6514C3.97307 67.4104 4.84532 65.3035 6.42881 63.7201L7.35139 62.7975L15.044 70.4901L14.9836 70.5505C13.0227 72.5131 13.0227 75.7052 14.9836 77.6678L27.0124 89.6966C27.9635 90.646 29.2266 91.171 30.5719 91.171C31.9172 91.171 33.1803 90.6477 34.0693 89.7553L34.1951 89.6429L41.923 97.3708L40.9602 98.2531ZM44.3989 95.0995L36.6878 87.3884L38.9037 85.3856L46.6013 93.0833L44.3989 95.0995Z" fill="white"/>
<path d="M99.3479 0.0620117H75.864C73.0896 0.0620117 70.8318 2.31982 70.8318 5.09427V18.5136C70.8318 21.2881 73.0896 23.5459 75.864 23.5459H80.3444L78.61 33.6624L94.7971 23.5459H99.3479C102.122 23.5459 104.38 21.2881 104.38 18.5136V5.09427C104.38 2.31982 102.122 0.0620117 99.3479 0.0620117ZM101.025 18.5136C101.025 19.4379 100.272 20.191 99.3479 20.191H93.8342L83.1809 26.8487L84.3233 20.191H75.864C74.9398 20.191 74.1866 19.4379 74.1866 18.5136V5.09427C74.1866 4.17001 74.9398 3.41685 75.864 3.41685H99.3479C100.272 3.41685 101.025 4.17001 101.025 5.09427V18.5136Z" fill="white"/>
<path d="M97.6703 6.77167H77.5413V10.1265H97.6703V6.77167Z" fill="white"/>
<path d="M90.9606 13.4814H77.5413V16.8362H90.9606V13.4814Z" fill="white"/>
<path d="M97.6703 13.4814H94.3154V16.8362H97.6703V13.4814Z" fill="white"/>
<path d="M52.38 5.0943C30.4628 5.0943 11.5835 20.2548 6.67535 41.402L3.49665 36.1031L0.619873 37.8291L6.516 47.6538L16.3406 41.7577L14.6146 38.8809L10.0688 41.6084C14.8226 22.2627 32.2191 8.44914 52.38 8.44914C56.7866 8.44914 61.1344 9.10333 65.3028 10.3949L66.2959 7.19107C61.8054 5.79882 57.1237 5.0943 52.38 5.0943Z" fill="white"/>
<path d="M103.565 37.2034L93.7402 31.3073L87.8458 41.1336L90.7225 42.8597L93.658 37.9667C95.2029 42.4873 95.993 47.216 95.993 52.062C95.993 62.0376 92.5375 71.7902 86.2656 79.5214L88.8707 81.6349C95.6273 73.3082 99.3478 62.8042 99.3478 52.062C99.3478 46.9308 98.5209 41.9203 96.9089 37.1229L101.839 40.0802L103.565 37.2034Z" fill="white"/>
</g>
<defs>
<clipPath id="clip0">
<rect width="104" height="104" fill="white" transform="translate(0.5 0.0620117)"/>
</clipPath>
</defs>
</svg>
