<svg width="104" height="105" viewBox="0 0 104 105" fill="none" xmlns="http://www.w3.org/2000/svg">
<g clip-path="url(#clip0)">
<path d="M95.0109 17.1245H8.98828C4.03235 17.1245 0 21.1569 0 26.1136V77.9493C0 82.9061 4.03235 86.9384 8.98828 86.9384H95.0109C99.9677 86.9384 104 82.9061 104 77.9493V26.1136C104 21.1569 99.9677 17.1245 95.0109 17.1245V17.1245ZM100.911 77.9493C100.911 81.2025 98.2641 83.8495 95.0109 83.8495H8.98828C5.7359 83.8495 3.08893 81.2025 3.08893 77.9493V26.1136C3.08893 22.8604 5.7359 20.2134 8.98828 20.2134H95.0109C98.2641 20.2134 100.911 22.8604 100.911 26.1136V77.9493Z" fill="white"/>
<path d="M46.2339 29.481H10.4006C9.54761 29.481 8.85571 30.1721 8.85571 31.0259V34.7321C8.85571 35.5851 9.54761 36.2762 10.4006 36.2762C11.2535 36.2762 11.9454 35.5851 11.9454 34.7321V32.5699H44.6898V70.2576H11.9454V40.9108C11.9454 40.0578 11.2535 39.3659 10.4006 39.3659C9.54761 39.3659 8.85571 40.0578 8.85571 40.9108V71.8016C8.85571 72.6546 9.54761 73.3465 10.4006 73.3465H46.2339C47.0869 73.3465 47.7787 72.6546 47.7787 71.8016V31.0259C47.7787 30.1721 47.0869 29.481 46.2339 29.481Z" fill="white"/>
<path d="M94.0128 33.0627H55.2961C54.4431 33.0627 53.7512 33.7546 53.7512 34.6075C53.7512 35.4605 54.4431 36.1516 55.2961 36.1516H94.0128C94.8658 36.1516 95.5569 35.4605 95.5569 34.6075C95.5569 33.7546 94.8658 33.0627 94.0128 33.0627Z" fill="white"/>
<path d="M94.0126 44.2671H85.3632C84.5102 44.2671 83.8191 44.9582 83.8191 45.8112C83.8191 46.6641 84.5102 47.356 85.3632 47.356H94.0126C94.8656 47.356 95.5567 46.6641 95.5567 45.8112C95.5567 44.9582 94.8656 44.2671 94.0126 44.2671Z" fill="white"/>
<path d="M55.2961 47.356H79.1847C80.0377 47.356 80.7296 46.6641 80.7296 45.8112C80.7296 44.9582 80.0377 44.2671 79.1847 44.2671H55.2961C54.4431 44.2671 53.7512 44.9582 53.7512 45.8112C53.7512 46.6641 54.4431 47.356 55.2961 47.356Z" fill="white"/>
<path d="M94.0128 55.4715H55.2961C54.4431 55.4715 53.7512 56.1626 53.7512 57.0156C53.7512 57.8685 54.4431 58.5604 55.2961 58.5604H94.0128C94.8658 58.5604 95.5569 57.8685 95.5569 57.0156C95.5569 56.1626 94.8658 55.4715 94.0128 55.4715Z" fill="white"/>
<path d="M76.3021 66.6759H55.2961C54.4431 66.6759 53.7512 67.367 53.7512 68.22C53.7512 69.0729 54.4431 69.7648 55.2961 69.7648H76.3021C77.155 69.7648 77.8461 69.0729 77.8461 68.22C77.8461 67.367 77.155 66.6759 76.3021 66.6759Z" fill="white"/>
<path d="M17.5054 66.8592C17.5054 67.7122 18.1973 68.4033 19.0502 68.4033C19.9032 68.4033 20.5951 67.7122 20.5951 66.8592C20.5951 62.6007 24.0593 59.1365 28.3178 59.1365C32.5763 59.1365 36.0405 62.6007 36.0405 66.8592C36.0405 67.7122 36.7316 68.4033 37.5846 68.4033C38.4376 68.4033 39.1295 67.7122 39.1295 66.8592C39.1295 62.93 37.0228 59.4848 33.8799 57.5916C37.0228 55.6984 39.1295 52.2532 39.1295 48.324C39.1295 42.3628 34.2791 37.5124 28.3178 37.5124C22.3558 37.5124 17.5054 42.3628 17.5054 48.324C17.5054 52.2532 19.6128 55.6984 22.7557 57.5916C19.6128 59.4848 17.5054 62.93 17.5054 66.8592ZM20.5951 48.324C20.5951 44.0656 24.0593 40.6013 28.3178 40.6013C32.5763 40.6013 36.0405 44.0656 36.0405 48.324C36.0405 52.5825 32.5763 56.0468 28.3178 56.0468C24.0593 56.0468 20.5951 52.5825 20.5951 48.324Z" fill="white"/>
</g>
<defs>
<clipPath id="clip0">
<rect width="104" height="104" fill="white" transform="translate(0 0.0620117)"/>
</clipPath>
</defs>
</svg>
