<svg width="105" height="105" viewBox="0 0 105 105" fill="none" xmlns="http://www.w3.org/2000/svg">
<g clip-path="url(#clip0)">
<path d="M104.634 102.473L89.3997 62.3413C89.2731 62.008 89.0336 61.7297 88.7233 61.5548L72.4964 52.413L77.2339 44.9015C80.1414 40.2877 81.6785 34.9559 81.6785 29.4825C81.6785 13.522 68.6937 0.537231 52.7332 0.537231C36.7727 0.537231 23.788 13.522 23.788 29.4825C23.788 34.9573 25.3256 40.2893 28.2348 44.9019C28.3126 45.0256 32.971 52.4134 32.971 52.4134L16.7436 61.5548C16.433 61.7297 16.1936 62.008 16.067 62.3413L0.832668 102.473C0.604965 103.072 0.777418 103.75 1.26349 104.169C1.75018 104.587 2.44588 104.656 3.00468 104.341L27.495 90.5433L51.9853 104.341C52.4495 104.602 53.0168 104.602 53.4809 104.341L77.9713 90.5433L102.462 104.341C102.695 104.472 102.953 104.537 103.209 104.537C103.566 104.537 103.92 104.412 104.203 104.169C104.689 103.75 104.862 103.072 104.634 102.473ZM54.2569 79.494C55.2099 79.1576 56.0363 78.5096 56.5971 77.6218C56.6745 77.4999 69.6436 56.9368 69.6436 56.9368L76.249 88.0165L54.2569 100.406V79.494ZM30.812 43.2763C28.2102 39.1508 26.8351 34.381 26.8351 29.4823C26.8351 15.2018 38.453 3.5839 52.7334 3.5839C67.0139 3.5839 78.6318 15.2018 78.6318 29.4823C78.6318 34.38 77.2571 39.1502 74.6569 43.2763C74.4536 43.5986 54.3804 75.4307 54.0302 75.9805C54.0269 75.9852 54.0241 75.9901 54.021 75.9948C53.7385 76.4416 53.2573 76.7087 52.7334 76.7087C52.2092 76.7087 51.7257 76.4404 51.4428 75.9956C51.2393 75.6728 31.1261 43.7778 30.8189 43.2874C30.8167 43.2838 30.8143 43.2801 30.812 43.2763ZM18.7196 63.9385L32.9213 55.938L30.4472 67.5779C30.2723 68.4009 30.7976 69.2098 31.6205 69.3849C31.7273 69.4076 31.834 69.4186 31.9388 69.4186C32.6426 69.4186 33.2751 68.9276 33.4273 68.2116L35.8235 56.9378L48.8684 77.6258C49.4312 78.5113 50.2582 79.1578 51.2096 79.4938V100.407L29.2179 88.0167L32.1606 74.1719C32.3355 73.3488 31.8102 72.54 30.9873 72.3649C30.1635 72.189 29.3552 72.7155 29.1803 73.5382L26.1479 87.8048L5.17405 99.6214L18.7196 63.9385ZM79.3188 87.805L72.546 55.9378L86.7471 63.9385L100.293 99.6214L79.3188 87.805Z" fill="white"/>
<path d="M69.4912 29.4816C69.4912 20.2414 61.9736 12.7238 52.7334 12.7238C43.4932 12.7238 35.9756 20.2414 35.9756 29.4816C35.9756 38.7217 43.4932 46.2394 52.7334 46.2394C61.9736 46.2394 69.4912 38.7217 69.4912 29.4816ZM39.0225 29.4816C39.0225 21.9213 45.1731 15.7706 52.7334 15.7706C60.2937 15.7706 66.4443 21.9213 66.4443 29.4816C66.4443 37.0419 60.2937 43.1925 52.7334 43.1925C45.1731 43.1925 39.0225 37.0419 39.0225 29.4816Z" fill="white"/>
<path d="M63.3975 29.4816C63.3975 23.6015 58.6135 18.8175 52.7334 18.8175C46.8533 18.8175 42.0693 23.6015 42.0693 29.4816C42.0693 35.3616 46.8533 40.1456 52.7334 40.1456C58.6135 40.1456 63.3975 35.3616 63.3975 29.4816ZM45.1162 29.4816C45.1162 25.2813 48.5332 21.8644 52.7334 21.8644C56.9336 21.8644 60.3506 25.2813 60.3506 29.4816C60.3506 33.6818 56.9336 37.0988 52.7334 37.0988C48.5332 37.0988 45.1162 33.6818 45.1162 29.4816Z" fill="white"/>
</g>
<defs>
<clipPath id="clip0">
<rect width="104" height="104" fill="white" transform="translate(0.73291 0.536255)"/>
</clipPath>
</defs>
</svg>
