<svg width="122" height="70" viewBox="0 0 122 70" fill="none" xmlns="http://www.w3.org/2000/svg">
<g filter="url(#filter0_d)">
<path d="M107.128 40.0585C107.128 43.1924 98.963 44.8255 98.963 44.8255H18.1441C15.1776 44.8255 14.7665 39.1583 14.8911 36.8762C14.9289 36.3362 15.0243 35.8019 15.1757 35.2822C15.5849 33.8129 16.3977 32.1613 17.4374 31.116C17.4388 31.1159 17.4401 31.1152 17.4411 31.1142C17.4894 31.0639 17.5415 31.0137 17.5936 30.9654C22.0741 26.8122 30.7357 25.3001 32.2497 24.6472C33.1164 24.1153 40.3366 15.0612 48.2561 12.5466C64.35 7.43558 90.7124 10.7704 99.1825 12.701C100.438 12.9874 101.013 14.228 100.168 15.1245L98.9258 16.4245C98.8221 16.5324 98.7413 16.6601 98.6881 16.7999C98.6349 16.9397 98.6104 17.0888 98.6161 17.2383C98.6218 17.3878 98.6577 17.5346 98.7214 17.6699C98.7852 17.8052 98.8755 17.9263 98.9872 18.0259C100.974 19.8115 103.293 22.1512 104.989 24.6268C105.417 25.2532 105.759 25.9345 106.005 26.6522C106.37 27.7218 106.529 28.8508 106.473 29.9796C106.452 30.476 106.39 30.9698 106.289 31.4564C105.642 34.6034 107.152 36.3777 107.128 40.0585Z" fill="#5ECC9F"/>
<path d="M91.5658 22.032C89.5589 22.2682 86.9216 22.5156 83.9141 22.7648C83.4175 22.8076 82.9097 22.8485 82.3945 22.8894C76.7664 23.3395 70.0801 23.7896 63.8791 24.1783C63.3806 24.2081 62.8859 24.2397 62.3949 24.2695C52.3978 24.887 44.0282 25.3296 44.0282 25.3296C41.7889 25.3296 41.8856 23.8361 42.3524 23.0289C43.2433 21.4889 47.5397 15.805 51.8399 14.743C54.347 14.1218 58.1413 13.681 62.3912 13.4169C62.8803 13.3853 63.3769 13.3574 63.8772 13.3313C68.6182 13.0895 73.7887 13.0579 78.3083 13.2383L79.4912 13.2923L79.8781 13.3109C83.2501 13.4913 86.1553 13.7982 88.0915 14.2315C90.5354 14.7783 92.6613 17.438 93.4331 19.8206C93.7289 20.7319 93.2471 21.8144 91.5658 22.032Z" fill="#584360"/>
<path d="M34.5204 49.9131C38.7031 49.9131 42.0938 46.5224 42.0938 42.3397C42.0938 38.1571 38.7031 34.7664 34.5204 34.7664C30.3377 34.7664 26.947 38.1571 26.947 42.3397C26.947 46.5224 30.3377 49.9131 34.5204 49.9131Z" fill="#584360"/>
<path d="M93.55 49.9131C97.7326 49.9131 101.123 46.5224 101.123 42.3397C101.123 38.1571 97.7326 34.7664 93.55 34.7664C89.3673 34.7664 85.9766 38.1571 85.9766 42.3397C85.9766 46.5224 89.3673 49.9131 93.55 49.9131Z" fill="#584360"/>
<path d="M34.521 44.6198C35.7803 44.6198 36.8012 43.5989 36.8012 42.3396C36.8012 41.0802 35.7803 40.0593 34.521 40.0593C33.2616 40.0593 32.2407 41.0802 32.2407 42.3396C32.2407 43.5989 33.2616 44.6198 34.521 44.6198Z" fill="#F7F0DF"/>
<path d="M93.5503 44.6198C94.8096 44.6198 95.8305 43.5989 95.8305 42.3396C95.8305 41.0802 94.8096 40.0593 93.5503 40.0593C92.2909 40.0593 91.27 41.0802 91.27 42.3396C91.27 43.5989 92.2909 44.6198 93.5503 44.6198Z" fill="#F7F0DF"/>
<path d="M22.7122 31.8078C22.8219 36.1749 15.1758 35.2822 15.1758 35.2822C15.585 33.8128 16.3977 32.1612 17.4374 31.116C17.4389 31.1158 17.4402 31.1152 17.4412 31.1141C17.6048 31.0843 22.4666 30.2009 22.7122 31.8078Z" fill="#F7F0DF"/>
<path d="M106.473 29.9795H103.023C101.965 29.9796 100.95 29.5594 100.202 28.8115L99.3127 27.9224C99.2085 27.8184 99.1376 27.6858 99.1088 27.5414C99.0801 27.397 99.0948 27.2473 99.1511 27.1113C99.2075 26.9753 99.3029 26.859 99.4254 26.7773C99.5479 26.6956 99.6918 26.652 99.839 26.6521H106.005C106.37 27.7217 106.529 28.8507 106.473 29.9795Z" fill="#F7F0DF"/>
<path d="M43.2955 17.2501C41.8299 19.5136 38.6365 22.3519 36.9849 23.4176C33.5124 25.5249 32.2495 24.647 32.2495 24.647C32.8744 24.2638 36.797 19.456 41.9025 15.8589C42.3042 15.8607 42.5479 15.8607 42.5795 15.8626C42.7382 15.8686 42.8925 15.9166 43.0266 16.0017C43.1607 16.0869 43.2697 16.2062 43.3425 16.3473C43.4154 16.4885 43.4494 16.6464 43.4412 16.8051C43.4329 16.9637 43.3827 17.1173 43.2955 17.2501Z" fill="#584360"/>
<path d="M63.879 13.3722V24.1783C63.3805 24.2081 62.8858 24.2397 62.3947 24.2695C62.3917 24.2504 62.3904 24.2311 62.391 24.2118V13.4169C62.8802 13.3852 63.3768 13.3573 63.8771 13.3313C63.8786 13.3449 63.8793 13.3586 63.879 13.3722Z" fill="#473049"/>
<path d="M59.8175 29.8559H56.8509C56.6536 29.8559 56.4644 29.7775 56.3248 29.638C56.1853 29.4984 56.1069 29.3092 56.1069 29.1119C56.1069 28.9146 56.1853 28.7253 56.3248 28.5858C56.4644 28.4463 56.6536 28.3679 56.8509 28.3679H59.8175C60.0148 28.3679 60.204 28.4463 60.3435 28.5858C60.483 28.7253 60.5614 28.9146 60.5614 29.1119C60.5614 29.3092 60.483 29.4984 60.3435 29.638C60.204 29.7775 60.0148 29.8559 59.8175 29.8559Z" fill="#43A88B"/>
<path d="M82.9326 29.8559H80.044C79.8467 29.8559 79.6575 29.7775 79.518 29.638C79.3784 29.4984 79.3 29.3092 79.3 29.1119C79.3 28.9146 79.3784 28.7253 79.518 28.5858C79.6575 28.4463 79.8467 28.3679 80.044 28.3679H82.9326C83.13 28.3679 83.3192 28.4463 83.4587 28.5858C83.5982 28.7253 83.6766 28.9146 83.6766 29.1119C83.6766 29.3092 83.5982 29.4984 83.4587 29.638C83.3192 29.7775 83.13 29.8559 82.9326 29.8559Z" fill="#43A88B"/>
<path d="M83.9146 22.7648C83.418 22.8075 82.9102 22.8485 82.395 22.8894L78.3683 13.5656C78.3235 13.4626 78.3031 13.3505 78.3088 13.2383L79.4917 13.2922L79.8786 13.3108L83.855 22.5174C83.888 22.5962 83.9081 22.6797 83.9146 22.7648Z" fill="#473049"/>
<path d="M81.86 42.1365C81.7294 42.1363 81.6013 42.1018 81.4883 42.0364C81.3753 41.9711 81.2816 41.8771 81.2164 41.7641C81.1512 41.651 81.1169 41.5228 81.1169 41.3923C81.117 41.2618 81.1514 41.1336 81.2166 41.0205L85.3864 33.8081C86.1965 31.6015 84.5254 27.5839 83.8073 26.2121C83.7173 26.0374 83.7001 25.8343 83.7594 25.647C83.8186 25.4597 83.9495 25.3035 84.1236 25.2123C84.2976 25.1212 84.5006 25.1026 84.6883 25.1606C84.876 25.2186 85.0331 25.3484 85.1254 25.5219C85.2446 25.7493 88.0269 31.1289 86.754 34.3981C86.7402 34.4334 86.7237 34.4676 86.7047 34.5004L82.5048 41.7652C82.4394 41.8783 82.3453 41.9721 82.2321 42.0373C82.1189 42.1024 81.9906 42.1366 81.86 42.1365Z" fill="#43A88B"/>
<path d="M63.1358 41.547C62.9385 41.547 62.7493 41.4686 62.6098 41.3291C62.4702 41.1896 62.3918 41.0004 62.3918 40.803V27.3233C62.3918 27.126 62.4702 26.9368 62.6098 26.7972C62.7493 26.6577 62.9385 26.5793 63.1358 26.5793C63.3331 26.5793 63.5224 26.6577 63.6619 26.7972C63.8014 26.9368 63.8798 27.126 63.8798 27.3233V40.803C63.8798 41.0004 63.8014 41.1896 63.6619 41.3291C63.5224 41.4686 63.3331 41.547 63.1358 41.547Z" fill="#43A88B"/>
</g>
<defs>
<filter id="filter0_d" x="0.154186" y="0.0244217" width="121.692" height="69.5122" filterUnits="userSpaceOnUse" color-interpolation-filters="sRGB">
<feFlood flood-opacity="0" result="BackgroundImageFix"/>
<feColorMatrix in="SourceAlpha" type="matrix" values="0 0 0 0 0 0 0 0 0 0 0 0 0 0 0 0 0 0 127 0"/>
<feOffset dy="4.90588"/>
<feGaussianBlur stdDeviation="7.35882"/>
<feColorMatrix type="matrix" values="0 0 0 0 0 0 0 0 0 0 0 0 0 0 0 0 0 0 0.15 0"/>
<feBlend mode="normal" in2="BackgroundImageFix" result="effect1_dropShadow"/>
<feBlend mode="normal" in="SourceGraphic" in2="effect1_dropShadow" result="shape"/>
</filter>
</defs>
</svg>
