<svg width="68" height="121" viewBox="0 0 68 121" fill="none" xmlns="http://www.w3.org/2000/svg">
<g filter="url(#filter0_d)">
<path d="M52.08 47.0489L49.994 54.1409L43.0398 77.7854H24.9596L18.0054 54.1409L15.9194 47.0489L19.5355 32.5847H23.1515V45.2409L25.6828 50.3034L28.5756 56.0891H39.4238L42.3166 50.3034L44.8479 45.2409V32.5847H48.4639L52.08 47.0489Z" fill="#548AFF"/>
<path d="M32.1919 59.7053H35.8079V70.5535H32.1919V59.7053Z" fill="#486BE0"/>
<path d="M28.5757 48.8572V56.0893C28.5757 57.5278 29.1471 58.9075 30.1644 59.9247C31.1816 60.9419 32.5612 61.5134 33.9998 61.5134C35.4383 61.5134 36.818 60.9419 37.8352 59.9247C38.8524 58.9075 39.4239 57.5278 39.4239 56.0893V48.8572H28.5757Z" fill="#F5C99D"/>
<path d="M43.0402 77.7856L44.8482 110.33H41.2321L34 88.6338L26.7679 110.33H23.1519L24.9599 77.7856H43.0402Z" fill="#556C80"/>
<path d="M25.6828 50.3034L18.0054 54.1409L15.9194 47.0489L19.5355 32.5847H23.1515V45.2409L25.6828 50.3034Z" fill="#F5C99D"/>
<path d="M52.0802 47.0489L49.9942 54.1409L42.3169 50.3034L44.8481 45.2409V32.5847H48.4642L52.0802 47.0489Z" fill="#F5C99D"/>
<path d="M44.8482 12.6963V23.5445L37.6161 28.9685H30.384L23.1519 23.5445V12.6963H44.8482Z" fill="#F6BB00"/>
<path d="M34 19.9286L44.8482 12.6965L34 5.46436L23.1519 12.6965L34 19.9286Z" fill="#EDA600"/>
<path d="M11.3115 8.78027L13.3184 5.77172L18.7421 9.38967L16.7352 12.3982L11.3115 8.78027Z" fill="#A2B8E0"/>
<path d="M11.3057 23.8362L16.7293 20.2182L18.7363 23.2268L13.3126 26.8447L11.3057 23.8362Z" fill="#A2B8E0"/>
<path d="M8.6875 14.5044H15.9196V18.1204H8.6875V14.5044Z" fill="#A2B8E0"/>
<path d="M49.2678 9.36133L54.6915 5.74337L56.6984 8.75193L51.2747 12.3699L49.2678 9.36133Z" fill="#A2B8E0"/>
<path d="M49.2908 23.2507L51.2977 20.2422L56.7214 23.8601L54.7144 26.8687L49.2908 23.2507Z" fill="#A2B8E0"/>
<path d="M52.0801 14.5044H59.3122V18.1204H52.0801V14.5044Z" fill="#A2B8E0"/>
<path d="M28.5757 48.857C30.891 51.1723 34.0312 52.4731 37.3056 52.4731H39.4239V48.857C39.4239 47.898 39.0429 46.9782 38.3647 46.3001C37.6866 45.6219 36.7668 45.241 35.8078 45.241H32.1917C31.2327 45.241 30.3129 45.6219 29.6348 46.3001C28.9567 46.9782 28.5757 47.898 28.5757 48.857Z" fill="#A36522"/>
</g>
<defs>
<filter id="filter0_d" x="0.688433" y="0.131644" width="66.6228" height="120.864" filterUnits="userSpaceOnUse" color-interpolation-filters="sRGB">
<feFlood flood-opacity="0" result="BackgroundImageFix"/>
<feColorMatrix in="SourceAlpha" type="matrix" values="0 0 0 0 0 0 0 0 0 0 0 0 0 0 0 0 0 0 127 0"/>
<feOffset dy="2.66636"/>
<feGaussianBlur stdDeviation="3.99953"/>
<feColorMatrix type="matrix" values="0 0 0 0 0 0 0 0 0 0 0 0 0 0 0 0 0 0 0.15 0"/>
<feBlend mode="normal" in2="BackgroundImageFix" result="effect1_dropShadow"/>
<feBlend mode="normal" in="SourceGraphic" in2="effect1_dropShadow" result="shape"/>
</filter>
</defs>
</svg>
