<svg width="157" height="112" viewBox="0 0 157 112" fill="none" xmlns="http://www.w3.org/2000/svg">
<g filter="url(#filter0_d)">
<path d="M106.353 12.9634V38.3608C106.353 39.4697 105.863 41.7145 102.999 41.7145H27.5856C24.5264 41.7145 22.8857 39.6935 22.8857 37.6877C22.8857 37.5868 22.8857 37.4858 22.8874 37.3848C22.8891 36.3331 22.9076 35.2932 22.943 34.3593C22.9732 33.5061 23.0153 32.7405 23.0708 32.1314C23.468 27.8152 24.4927 19.0145 26.1115 14.0504C26.1317 13.9865 26.1536 13.9225 26.1755 13.8586C26.2058 13.766 26.2377 13.6752 26.2697 13.5826C26.7123 12.3223 27.1986 11.3564 27.7253 10.8431C28.4606 10.1297 29.9128 9.28662 32.1677 9.28662H101.796C106.045 9.28662 106.353 12.9634 106.353 12.9634Z" fill="#37BFBF"/>
<path d="M27.1497 25.1833C26.6516 29.4507 26.5053 31.7274 23.0708 32.1498V32.1313C23.4679 27.815 24.4927 19.0144 26.1115 14.0503C26.1317 13.9864 26.1536 13.9224 26.1754 13.8585C26.2057 13.7659 26.2377 13.6751 26.2697 13.5825C29.5342 13.5825 27.9659 18.2067 27.1497 25.1833Z" fill="#584360"/>
<path d="M31.9822 32.0533V14.7007C31.9822 14.3436 32.124 14.0012 32.3765 13.7488C32.6289 13.4963 32.9713 13.3545 33.3284 13.3545H44.0879C44.4449 13.3545 44.7874 13.4963 45.0398 13.7488C45.2923 14.0012 45.4341 14.3436 45.4341 14.7007V21.8257C45.4341 30.3326 37.1172 32.7395 33.5623 33.3798C33.3686 33.4144 33.1696 33.4059 32.9795 33.3552C32.7894 33.3044 32.6128 33.2125 32.4621 33.086C32.3114 32.9595 32.1903 32.8014 32.1074 32.623C32.0245 32.4446 31.9817 32.2501 31.9822 32.0533Z" fill="#584360"/>
<path d="M102.462 15.0117V26.286C102.462 26.4628 102.427 26.6378 102.359 26.8011C102.292 26.9645 102.193 27.1129 102.068 27.2379C101.943 27.3629 101.794 27.462 101.631 27.5297C101.468 27.5973 101.293 27.6322 101.116 27.6322H50.8291C50.4718 27.6323 50.1291 27.4906 49.8764 27.2382C49.6236 26.9857 49.4815 26.6432 49.4812 26.286V15.0117C49.4815 14.6545 49.6236 14.312 49.8764 14.0595C50.1291 13.8071 50.4718 13.6653 50.8291 13.6655H101.116C101.473 13.6655 101.815 13.8074 102.068 14.0598C102.32 14.3123 102.462 14.6547 102.462 15.0117Z" fill="#584360"/>
<path d="M44.4222 44.4359C46.9169 44.4359 48.9393 42.4135 48.9393 39.9187C48.9393 37.424 46.9169 35.4016 44.4222 35.4016C41.9274 35.4016 39.905 37.424 39.905 39.9187C39.905 42.4135 41.9274 44.4359 44.4222 44.4359Z" fill="#584360"/>
<path d="M84.8159 44.4359C87.3107 44.4359 89.3331 42.4135 89.3331 39.9187C89.3331 37.424 87.3107 35.4016 84.8159 35.4016C82.3212 35.4016 80.2988 37.424 80.2988 39.9187C80.2988 42.4135 82.3212 44.4359 84.8159 44.4359Z" fill="#584360"/>
<path d="M44.4221 41.8183C45.4712 41.8183 46.3217 40.9678 46.3217 39.9187C46.3217 38.8695 45.4712 38.019 44.4221 38.019C43.373 38.019 42.5225 38.8695 42.5225 39.9187C42.5225 40.9678 43.373 41.8183 44.4221 41.8183Z" fill="#E5E5E5"/>
<path d="M84.8159 41.8183C85.865 41.8183 86.7155 40.9678 86.7155 39.9187C86.7155 38.8695 85.865 38.019 84.8159 38.019C83.7668 38.019 82.9163 38.8695 82.9163 39.9187C82.9163 40.9678 83.7668 41.8183 84.8159 41.8183Z" fill="#E5E5E5"/>
<path d="M27.377 34.6038C27.2272 36.0829 26.3471 37.2844 22.8875 37.3853C22.8891 36.3336 22.9076 35.2937 22.943 34.3598C24.058 34.0135 25.2001 33.7613 26.3572 33.6059C26.4933 33.5889 26.6315 33.6028 26.7614 33.6466C26.8914 33.6904 27.0097 33.763 27.1078 33.8589C27.2058 33.9548 27.2809 34.0716 27.3275 34.2006C27.3741 34.3295 27.391 34.4674 27.377 34.6038Z" fill="#E5E5E5"/>
<path d="M106.352 30.1011V36.7773H104.544C104.046 36.7773 103.567 36.5793 103.215 36.2268C102.863 35.8744 102.665 35.3963 102.665 34.8979V33.7883C102.665 32.8104 103.053 31.8725 103.745 31.181C104.436 30.4895 105.374 30.1011 106.352 30.1011Z" fill="#E5E5E5"/>
<path d="M62.0544 13.665H63.4006V27.6317H62.0544V13.665Z" fill="#473049"/>
<path d="M75.2993 13.665H76.6455V27.6317H75.2993V13.665Z" fill="#473049"/>
<path d="M88.5442 13.665H89.8904V27.6317H88.5442V13.665Z" fill="#473049"/>
<path d="M123.894 87.3894C128.618 87.3894 132.448 83.5125 132.448 78.7301C132.448 73.9477 128.618 70.0708 123.894 70.0708C119.17 70.0708 115.341 73.9477 115.341 78.7301C115.341 83.5125 119.17 87.3894 123.894 87.3894Z" fill="#584360"/>
<path d="M123.894 82.0017C125.679 82.0017 127.126 80.5371 127.126 78.7305C127.126 76.9238 125.679 75.4592 123.894 75.4592C122.11 75.4592 120.663 76.9238 120.663 78.7305C120.663 80.5371 122.11 82.0017 123.894 82.0017Z" fill="#F7F0DF"/>
<path d="M131.676 60.2884C131.557 60.2884 131.44 60.2558 131.337 60.1941C131.234 60.1323 131.15 60.0438 131.093 59.9377C131.036 59.8315 131.008 59.7118 131.012 59.591C131.016 59.4702 131.053 59.3529 131.117 59.2512L134.485 53.9469C134.532 53.8725 134.593 53.8083 134.665 53.7579C134.737 53.7075 134.818 53.6719 134.903 53.6531C134.988 53.6343 135.076 53.6327 135.162 53.6484C135.248 53.6641 135.33 53.6968 135.404 53.7446C135.477 53.7924 135.541 53.8543 135.591 53.927C135.64 53.9996 135.676 54.0814 135.694 54.1678C135.713 54.2542 135.714 54.3434 135.699 54.4304C135.683 54.5174 135.651 54.6005 135.604 54.6749L132.236 59.9788C132.176 60.0738 132.093 60.152 131.995 60.2061C131.897 60.2602 131.788 60.2885 131.676 60.2884Z" fill="#584360"/>
<path d="M90.125 40.8059C89.9879 40.806 89.8541 40.7632 89.742 40.6833C89.6298 40.6034 89.5448 40.4904 89.4986 40.3597C89.4524 40.229 89.4472 40.087 89.4838 39.9532C89.5204 39.8194 89.597 39.7004 89.703 39.6124L92.7716 37.064C92.8391 37.0077 92.9169 36.9655 93.0005 36.9397C93.0841 36.9138 93.172 36.905 93.259 36.9136C93.346 36.9222 93.4305 36.9481 93.5076 36.9898C93.5848 37.0315 93.653 37.0881 93.7085 37.1566C93.7639 37.225 93.8055 37.3038 93.8308 37.3886C93.8561 37.4733 93.8647 37.5622 93.856 37.6503C93.8473 37.7384 93.8216 37.8239 93.7802 37.9019C93.7389 37.9798 93.6827 38.0488 93.615 38.1048L90.5464 40.6533C90.4277 40.7521 90.2787 40.8061 90.125 40.8059Z" fill="#584360"/>
<path d="M74.9661 87.3902C79.6902 87.3902 83.5198 83.5133 83.5198 78.7309C83.5198 73.9484 79.6902 70.0715 74.9661 70.0715C70.242 70.0715 66.4124 73.9484 66.4124 78.7309C66.4124 83.5133 70.242 87.3902 74.9661 87.3902Z" fill="#584360"/>
<path d="M85.9661 77.7683C86.1796 77.8226 86.4031 77.8225 86.6166 77.768C86.8302 77.7134 87.027 77.6062 87.1895 77.4557C87.352 77.3053 87.4752 77.1165 87.5479 76.9061C87.6207 76.6957 87.6408 76.4703 87.6065 76.2502C87.223 73.7523 86.1224 71.4238 84.4416 69.5544C82.7609 67.685 80.5742 66.3572 78.1538 65.7362C75.7333 65.1153 73.1859 65.2286 70.8286 66.0621C68.4712 66.8956 66.408 68.4124 64.8957 70.4239C64.7612 70.6008 64.6721 70.8088 64.6366 71.0292C64.601 71.2496 64.6201 71.4755 64.692 71.6866C64.764 71.8978 64.8866 72.0875 65.0488 72.2388C65.2111 72.3901 65.4079 72.4982 65.6216 72.5535L85.9661 77.7683Z" fill="#EA3453"/>
<path d="M132.745 60.7666C132.55 60.5332 132.352 60.3005 132.156 60.0767C131.67 59.5162 131.035 59.1096 130.326 58.9055C129.617 58.7014 128.866 58.7086 128.161 58.9262L126.533 59.5656L133.407 64.7405C134.04 63.3804 133.702 61.916 132.745 60.7666Z" fill="#FFC639"/>
<path d="M123.894 58.3485H105.62C108.171 61.7914 108.45 66.2068 107.452 70.3908C107.347 70.8321 107.098 71.2248 106.745 71.5055C106.393 71.7863 105.957 71.939 105.509 71.9389H90.0398C89.303 71.9389 86.2786 68.0881 84.3384 64.8413C83.7326 63.827 85.7136 58.3857 86.8992 55.2772C89.5298 48.381 90.8304 42.2253 89.8763 39.1353C89.0982 36.615 86.5768 33.8764 82.6558 34.5382C81.412 34.7482 80.2747 36.9221 80.2747 39.861C80.2747 42.5029 80.8855 44.7955 82.2572 45.0879C83.803 45.4172 86.0663 44.4221 86.7801 44.1683C86.7801 44.1683 80.385 58.6601 78.2152 64.5778C78.1026 64.8864 78.0774 65.2207 78.1426 65.543C78.2077 65.8653 78.3606 66.1627 78.5839 66.4017C81.1482 69.156 83.7201 73.0956 85.0248 75.1992C85.3011 75.6448 85.6847 76.0122 86.1396 76.2668C86.5945 76.5213 87.1058 76.6548 87.6256 76.6547H136.521C136.7 76.6552 136.876 76.6192 137.041 76.549C137.205 76.4787 137.354 76.3757 137.478 76.2459C137.602 76.1162 137.699 75.9625 137.763 75.7939C137.827 75.6254 137.857 75.4455 137.851 75.265C137.724 71.93 136.148 63.3743 123.894 58.3485Z" fill="#F9435A"/>
<path d="M123.894 58.3487H105.62C104.49 58.3487 102.822 56.8054 102.822 54.368C102.822 52.6853 104.219 51.8552 105.602 51.8552L121.526 51.2511C122.156 51.2409 122.782 51.3632 123.364 51.6103C123.946 51.8574 124.471 52.2239 124.906 52.6868C127.407 55.4545 123.894 58.3487 123.894 58.3487Z" fill="#584360"/>
<path d="M143.126 36.2625H126.962C126.303 36.2625 125.769 36.8033 125.769 37.4705V50.6466C125.769 51.3138 126.303 51.8546 126.962 51.8546H143.126C143.785 51.8546 144.32 51.3138 144.32 50.6466V37.4705C144.32 36.8033 143.785 36.2625 143.126 36.2625Z" fill="#F7F0DF"/>
<path d="M141.317 51.8547H128.767C128.097 51.8547 127.554 52.4044 127.554 53.0825C127.554 53.7606 128.097 54.3103 128.767 54.3103H141.317C141.987 54.3103 142.53 53.7606 142.53 53.0825C142.53 52.4044 141.987 51.8547 141.317 51.8547Z" fill="#EFDFC5"/>
<path d="M82.4668 45.1217C82.3964 45.1149 82.3264 45.1037 82.2574 45.0881C80.886 44.797 79.9419 42.5034 79.9419 39.8615C79.9419 36.9235 81.413 34.7494 82.6563 34.5391C83.0805 38.0583 83.0167 41.6204 82.4668 45.1217Z" fill="#F7F0DF"/>
<path d="M74.9662 82.0017C76.7508 82.0017 78.1975 80.5371 78.1975 78.7305C78.1975 76.9238 76.7508 75.4592 74.9662 75.4592C73.1816 75.4592 71.7349 76.9238 71.7349 78.7305C71.7349 80.5371 73.1816 82.0017 74.9662 82.0017Z" fill="#F7F0DF"/>
<path d="M123.092 63.2768H113.701C113.524 63.2768 113.355 63.2059 113.23 63.0797C113.106 62.9535 113.036 62.7823 113.036 62.6038C113.036 62.4252 113.106 62.254 113.23 62.1278C113.355 62.0016 113.524 61.9307 113.701 61.9307H123.093C123.269 61.9307 123.438 62.0016 123.563 62.1278C123.688 62.254 123.758 62.4252 123.758 62.6038C123.758 62.7823 123.688 62.9535 123.563 63.0797C123.438 63.2059 123.269 63.2768 123.093 63.2768H123.092Z" fill="#EA3453"/>
<path d="M123.092 66.2964H113.701C113.524 66.2964 113.355 66.2255 113.23 66.0992C113.106 65.973 113.036 65.8018 113.036 65.6233C113.036 65.4448 113.106 65.2736 113.23 65.1473C113.355 65.0211 113.524 64.9502 113.701 64.9502H123.093C123.269 64.9502 123.438 65.0211 123.563 65.1473C123.688 65.2736 123.758 65.4448 123.758 65.6233C123.758 65.8018 123.688 65.973 123.563 66.0992C123.438 66.2255 123.269 66.2964 123.093 66.2964H123.092Z" fill="#EA3453"/>
<path d="M94.4848 39.1658C95.2635 39.1658 95.8947 37.9826 95.8947 36.5231C95.8947 35.0636 95.2635 33.8804 94.4848 33.8804C93.7062 33.8804 93.075 35.0636 93.075 36.5231C93.075 37.9826 93.7062 39.1658 94.4848 39.1658Z" fill="#F9435A"/>
<path d="M43.83 59.0778C43.0842 59.0778 42.4796 58.485 42.4796 57.7538V54.0468C42.4796 52.8301 41.4699 51.8402 40.2289 51.8402H31.2262C29.9851 51.8402 28.9755 52.8301 28.9755 54.0468V57.7538C28.9755 58.485 28.3709 59.0778 27.6251 59.0778C26.8793 59.0778 26.2747 58.485 26.2747 57.7538V54.0468C26.2747 51.3701 28.4959 49.1924 31.2262 49.1924H40.2289C42.9592 49.1924 45.1804 51.3701 45.1804 54.0468V57.7538C45.1804 58.485 44.5758 59.0778 43.83 59.0778Z" fill="#5F55AF"/>
<path d="M40.2289 51.8402C41.4699 51.8402 42.4796 52.8301 42.4796 54.0468V57.7538C42.4796 58.485 43.0842 59.0778 43.83 59.0778C44.5758 59.0778 45.1804 58.485 45.1804 57.7538V54.0468C45.1804 51.3701 42.9592 49.1924 40.2289 49.1924H35.7275V51.8402H40.2289Z" fill="#453D83"/>
<path d="M15.3813 87.7629V89.5281C15.3813 92.2092 17.5982 94.3826 20.3329 94.3826H51.1223C53.8569 94.3826 56.0738 92.2092 56.0738 89.5281V87.7629C56.0738 87.0317 55.4691 86.439 54.7234 86.439H16.7318C15.986 86.439 15.3813 87.0317 15.3813 87.7629Z" fill="#FF9F22"/>
<path d="M56.0737 89.5281V87.7629C56.0737 87.0317 55.4691 86.439 54.7233 86.439H35.7275V94.3826H51.1222C53.8569 94.3826 56.0737 92.2092 56.0737 89.5281Z" fill="#FF7C48"/>
<path d="M15.3813 68.4138H56.0738V87.7627H15.3813V68.4138Z" fill="#FF7C48"/>
<path d="M35.7275 68.4138H56.0737V87.7627H35.7275V68.4138Z" fill="#FF4C04"/>
<path d="M52.9227 70.1103H18.5322C15.3055 70.1103 12.6804 67.5367 12.6804 64.3733V57.7536C12.6804 57.0225 13.285 56.4297 14.0308 56.4297H20.8729L23.5737 58.1949L26.2746 56.4297H45.1803L47.8812 58.1949L50.582 56.4297H57.4241C58.1699 56.4297 58.7745 57.0225 58.7745 57.7536V64.3733C58.7745 67.5367 56.1494 70.1103 52.9227 70.1103Z" fill="#FF9F22"/>
<path d="M57.4242 56.4297H50.5821L47.8812 58.1949L45.1804 56.4297H35.7275V70.1103H52.9228C56.1495 70.1103 58.7746 67.5367 58.7746 64.3733V57.7536C58.7746 57.0225 58.17 56.4297 57.4242 56.4297Z" fill="#FF7C48"/>
<path d="M47.8812 78.4954C46.3896 78.4954 45.1804 77.3099 45.1804 75.8475V71.8757C45.1804 71.1445 45.785 70.5518 46.5308 70.5518H49.2317C49.9774 70.5518 50.5821 71.1445 50.5821 71.8757V75.8475C50.5821 77.3099 49.3729 78.4954 47.8812 78.4954Z" fill="#FFCD00"/>
<path d="M45.1804 56.4297H50.5821V71.8756H45.1804V56.4297Z" fill="#FFDE55"/>
<path d="M23.5739 78.4954C22.0822 78.4954 20.873 77.3099 20.873 75.8475V71.8757C20.873 71.1445 21.4777 70.5518 22.2235 70.5518H24.9243C25.6701 70.5518 26.2747 71.1445 26.2747 71.8757V75.8475C26.2747 77.3099 25.0655 78.4954 23.5739 78.4954Z" fill="#FFDE55"/>
<path d="M20.873 56.4297H26.2747V71.8756H20.873V56.4297Z" fill="#FFF79F"/>
</g>
<defs>
<filter id="filter0_d" x="0.0722618" y="0.881182" width="156.856" height="110.312" filterUnits="userSpaceOnUse" color-interpolation-filters="sRGB">
<feFlood flood-opacity="0" result="BackgroundImageFix"/>
<feColorMatrix in="SourceAlpha" type="matrix" values="0 0 0 0 0 0 0 0 0 0 0 0 0 0 0 0 0 0 127 0"/>
<feOffset dy="4.20272"/>
<feGaussianBlur stdDeviation="6.30408"/>
<feColorMatrix type="matrix" values="0 0 0 0 0 0 0 0 0 0 0 0 0 0 0 0 0 0 0.15 0"/>
<feBlend mode="normal" in2="BackgroundImageFix" result="effect1_dropShadow"/>
<feBlend mode="normal" in="SourceGraphic" in2="effect1_dropShadow" result="shape"/>
</filter>
</defs>
</svg>
