<svg width="105" height="105" viewBox="0 0 105 105" fill="none" xmlns="http://www.w3.org/2000/svg">
<g clip-path="url(#clip0)">
<path d="M86.321 55.5045C85.4851 55.5045 84.8075 56.1821 84.8075 57.018C84.8075 58.0777 83.9455 58.9398 82.8857 58.9398C81.8262 58.9398 80.964 58.0777 80.964 57.018C80.964 56.1819 80.2864 55.5045 79.4505 55.5045C78.6146 55.5045 77.937 56.1821 77.937 57.018C77.937 59.7468 80.1572 61.9667 82.8857 61.9667C85.6143 61.9667 87.8345 59.7466 87.8345 57.018C87.8345 56.1817 87.1569 55.5045 86.321 55.5045Z" fill="white"/>
<path d="M100.528 55.7517L96.2677 54.3871C95.7222 54.2123 95.2921 53.7768 95.1177 53.222C94.2198 50.3675 92.865 47.6877 91.0907 45.2567C90.2821 44.1486 89.3828 43.0906 88.4005 42.0833C89.029 39.3262 89.3706 36.206 89.3264 33.5104C89.263 29.654 88.4923 27.3922 86.9705 26.5952C86.1509 26.1654 83.6565 24.8597 70.1554 31.04C69.8357 31.1862 69.5371 31.3664 69.2607 31.5728C68.3505 31.3282 67.4201 31.1019 66.4841 30.8988C66.3714 30.8742 66.2552 30.8525 66.1417 30.8285C67.2357 28.4385 67.8745 25.8428 67.9946 23.1632C68.032 22.3279 67.3854 21.6206 66.5502 21.5835C65.7171 21.542 65.0076 22.1924 64.9705 23.0277C64.7732 27.4337 62.9455 31.5793 59.8243 34.7007C57.9594 36.5656 55.7758 37.9202 53.4486 38.7733C49.4127 38.207 45.3019 38.207 41.266 38.7733C38.9386 37.9202 36.7552 36.5656 34.8903 34.7007C31.5602 31.3706 29.7262 26.9431 29.7262 22.2337C29.7262 17.524 31.5602 13.0967 34.8903 9.76668C38.2203 6.43644 42.648 4.60243 47.3573 4.60243C52.0665 4.60243 56.4943 6.43644 59.8243 9.76668C61.1625 11.1049 62.2683 12.632 63.111 14.3051C63.487 15.0518 64.3972 15.3524 65.1437 14.9762C65.8904 14.6004 66.1908 13.6902 65.8148 12.9438C64.827 10.9818 63.5317 9.19285 61.965 7.62594C58.0632 3.72412 52.8754 1.57526 47.3575 1.57526C41.8396 1.57526 36.6518 3.72412 32.75 7.62594C28.8481 11.528 26.6993 16.7156 26.6993 22.2335C26.6993 27.7514 28.8481 32.9392 32.75 36.841C33.8755 37.9665 35.0999 38.9344 36.395 39.7453C36.3954 39.7453 36.3958 39.7451 36.3963 39.7451C35.4552 39.9896 34.5212 40.2643 33.5976 40.573C32.8048 40.8381 32.377 41.6955 32.6421 42.4885C32.907 43.2813 33.7648 43.7091 34.5574 43.4442C42.8116 40.6847 51.9034 40.6847 60.1576 43.4442C60.3169 43.4974 60.4785 43.5226 60.6376 43.5226C61.2707 43.5226 61.861 43.122 62.0729 42.4885C62.338 41.6957 61.9102 40.8381 61.1174 40.573C60.1938 40.2643 59.2598 39.9894 58.3187 39.7451C58.3191 39.7451 58.3195 39.7453 58.3199 39.7453C59.6153 38.9344 60.8395 37.9665 61.965 36.841C62.9607 35.8453 63.8397 34.758 64.6028 33.6024C65.02 33.6834 65.4342 33.7683 65.8423 33.8569C66.3858 33.9749 66.927 34.1017 67.4632 34.2347C67.4463 34.3005 67.4291 34.3661 67.4151 34.433C66.6769 37.9359 66.7248 41.0339 67.5574 43.6406C68.3058 45.9837 69.6563 47.8819 71.5712 49.2828C73.8281 50.9338 76.5528 51.647 79.021 51.647C80.8786 51.647 82.5911 51.2428 83.8489 50.5304C85.2716 49.7246 86.4635 48.0267 87.407 45.4775C87.8431 45.9865 88.2565 46.5079 88.6461 47.0417C90.2258 49.2058 91.4318 51.5909 92.2304 54.1304C92.6995 55.6219 93.8638 56.7956 95.3447 57.2703L99.6047 58.6349C100.722 58.993 101.473 60.0218 101.473 61.1955V68.2592C101.473 69.4328 100.722 70.4616 99.6047 70.8198L92.7413 73.0182C91.6432 73.3702 90.7139 74.1248 90.1246 75.1433C87.4282 79.8034 83.1887 83.6597 77.5234 86.6052C76.8689 86.9459 76.4155 87.555 76.279 88.2769L74.0808 99.9166C74.0201 100.237 73.7392 100.47 73.4127 100.47H66.2654C65.939 100.47 65.658 100.237 65.5973 99.9166L64.3798 93.4838C64.1401 92.2182 62.953 91.3774 61.6754 91.571C58.5966 92.0366 55.4242 92.2724 52.2467 92.2724C49.8827 92.2724 47.549 92.1406 45.31 91.8804C44.0719 91.738 42.9186 92.582 42.6872 93.8044L41.5302 99.9166C41.4695 100.237 41.1886 100.47 40.8622 100.47H33.7148C33.3884 100.47 33.1075 100.237 33.0459 99.9117L30.9293 88.9182C30.793 88.2099 30.3482 87.6076 29.7082 87.2658C20.0508 82.1103 14.9463 73.4969 14.9463 62.3576C14.9463 56.7294 16.1776 51.7526 18.606 47.565C20.872 43.6571 24.1817 40.426 28.4431 37.961C29.1666 37.5424 29.4138 36.6166 28.9954 35.8928C28.577 35.1693 27.6511 34.9225 26.9274 35.3405C18.6645 40.1205 13.6808 47.4947 12.3087 56.8608V56.8606C12.163 56.8474 12.0172 56.8348 11.872 56.8198C11.8984 55.8092 11.7155 54.7895 11.3174 53.7999C10.4393 51.6171 8.63556 50.0417 6.72192 49.7864C5.21392 49.5845 3.77884 50.2247 2.78292 51.5406C1.33891 53.4487 1.57433 54.9587 2.02587 55.8895C2.7882 57.4602 4.74775 58.5713 7.99958 59.2699C7.9102 59.4037 7.81189 59.5382 7.70423 59.6733C5.78288 62.0829 3.51925 62.6157 2.04944 62.6659C1.189 62.695 0.5 63.3858 0.5 64.2468V64.2541C0.5 65.1034 1.17011 65.7961 2.01856 65.8349C2.12723 65.8399 2.24078 65.8426 2.359 65.8426C4.21881 65.8426 7.20373 65.1566 10.0715 61.5607C10.5242 60.9932 10.8931 60.3944 11.1767 59.7757C11.4622 59.8079 11.7367 59.8356 11.9995 59.8599C11.9995 59.8593 11.9995 59.8589 11.9997 59.8583C11.9481 60.6785 11.9195 61.5107 11.9195 62.3576C11.9195 68.6601 13.422 74.2796 16.385 79.0605C19.117 83.4684 23.0286 87.0775 28.0149 89.7916L30.0726 100.479C30.4035 102.228 31.9352 103.497 33.7148 103.497H40.8622C42.6417 103.497 44.1735 102.228 44.5044 100.479L45.5505 94.9526C47.7231 95.1828 49.9725 95.2994 52.2465 95.2994C55.3665 95.2994 58.4828 95.082 61.52 94.653L62.6227 100.48C62.9538 102.228 64.4856 103.497 66.265 103.497H73.4123C75.1919 103.497 76.7237 102.228 77.0548 100.479L79.1951 89.1463C85.2417 85.9489 89.7994 81.7487 92.7443 76.6592C92.9566 76.2924 93.2834 76.0232 93.6645 75.9011L100.528 73.7027C102.904 72.9412 104.5 70.7537 104.5 68.2588V61.1951C104.5 58.7003 102.904 56.5128 100.528 55.7517ZM86.0721 37.7636C85.4895 42.7454 83.9269 47.007 82.3567 47.8963C80.5721 48.9072 76.4517 49.1024 73.3581 46.8394C70.2608 44.5738 69.23 40.4995 70.3766 35.057C70.3766 35.0568 70.3766 35.0568 70.3766 35.0568C70.4918 34.5101 70.8802 34.0373 71.4154 33.7923C78.9928 30.3237 83.3614 29.1893 84.9844 29.1893C85.2293 29.1893 85.4117 29.2151 85.5332 29.2626C86.0207 29.7822 86.6601 32.7358 86.0721 37.7636ZM4.74958 54.5677C4.59297 54.2448 4.96266 53.677 5.19706 53.3671C5.56858 52.8763 5.91084 52.776 6.16942 52.776C6.22406 52.776 6.27505 52.7804 6.32177 52.7867C7.01767 52.8796 7.99267 53.6453 8.50922 54.9293C8.63089 55.2315 8.78892 55.7322 8.82589 56.3567C6.73066 55.9226 5.10281 55.2967 4.74958 54.5677Z" fill="white"/>
<path d="M48.8271 20.4988V15.0827C50.6948 15.2161 51.3887 16.0699 52.0289 16.0699C52.8295 16.0699 53.203 15.0561 53.203 14.5491C53.203 13.2415 50.6414 12.6813 48.8271 12.6279V11.9072C48.8271 11.5871 48.4267 11.2936 48.0266 11.2936C47.5728 11.2936 47.2527 11.5871 47.2527 11.9072V12.6809C44.7179 12.9478 42.1831 14.282 42.1831 17.6439C42.1831 21.0592 44.8513 22.0198 47.2527 22.8735V29.1438C44.531 28.9303 43.8107 27.0626 42.9302 27.0626C42.2631 27.0626 41.7029 27.9431 41.7029 28.5836C41.7029 29.8909 43.9442 31.6786 47.2527 31.732V32.5591C47.2527 32.8793 47.573 33.1728 48.0266 33.1728C48.4269 33.1728 48.8271 32.8793 48.8271 32.5591V31.652C51.7088 31.2516 53.6832 29.4373 53.6832 26.1554C53.6832 22.5268 51.1484 21.3525 48.8271 20.4988ZM47.4127 19.992C45.9986 19.4584 44.8513 18.8982 44.8513 17.3774C44.8513 15.9898 45.9185 15.3228 47.4127 15.1361V19.992ZM48.6668 29.0904V23.4606C49.9741 24.0208 51.0147 24.7679 51.0147 26.4487C51.0147 27.9699 50.1076 28.8237 48.6668 29.0904Z" fill="white"/>
</g>
<defs>
<clipPath id="clip0">
<rect width="104" height="104" fill="white" transform="translate(0.5 0.536255)"/>
</clipPath>
</defs>
</svg>
