<svg width="105" height="105" viewBox="0 0 105 105" fill="none" xmlns="http://www.w3.org/2000/svg">
<path d="M82.2954 57.4113H81.4829V31.4113C81.4829 15.2831 68.361 2.16125 52.2329 2.16125C36.1048 2.16125 22.9829 15.2831 22.9829 31.4113V57.4113H22.1704C20.6625 57.4129 19.2168 58.0127 18.1506 59.0789C17.0843 60.1452 16.4846 61.5908 16.4829 63.0988V97.2238C16.4846 98.7317 17.0843 100.177 18.1506 101.244C19.2168 102.31 20.6625 102.91 22.1704 102.911H82.2954C83.8033 102.91 85.249 102.31 86.3152 101.244C87.3815 100.177 87.9812 98.7317 87.9829 97.2238V63.0988C87.9812 61.5908 87.3815 60.1452 86.3152 59.0789C85.249 58.0127 83.8033 57.4129 82.2954 57.4113ZM26.2329 31.4113C26.2329 24.5156 28.9722 17.9024 33.8481 13.0265C38.7241 8.15053 45.3373 5.41125 52.2329 5.41125C59.1285 5.41125 65.7417 8.15053 70.6177 13.0265C75.4936 17.9024 78.2329 24.5156 78.2329 31.4113V57.4113H71.7329V31.4113C71.7329 26.2395 69.6785 21.2796 66.0215 17.6227C62.3645 13.9657 57.4046 11.9113 52.2329 11.9113C47.0612 11.9113 42.1013 13.9657 38.4443 17.6227C34.7874 21.2796 32.7329 26.2395 32.7329 31.4113V57.4113H26.2329V31.4113ZM68.4829 31.4113V57.4113H35.9829V31.4113C35.9829 27.1015 37.695 22.9682 40.7424 19.9208C43.7899 16.8733 47.9231 15.1613 52.2329 15.1613C56.5427 15.1613 60.6759 16.8733 63.7234 19.9208C66.7709 22.9682 68.4829 27.1015 68.4829 31.4113ZM84.7329 97.2238C84.7324 97.8701 84.4754 98.4897 84.0184 98.9467C83.5614 99.4037 82.9417 99.6607 82.2954 99.6613H22.1704C21.5241 99.6607 20.9044 99.4037 20.4474 98.9467C19.9904 98.4897 19.7334 97.8701 19.7329 97.2238V63.0988C19.7334 62.4525 19.9904 61.8328 20.4474 61.3758C20.9044 60.9188 21.5241 60.6618 22.1704 60.6613H82.2954C82.9417 60.6618 83.5614 60.9188 84.0184 61.3758C84.4754 61.8328 84.7324 62.4525 84.7329 63.0988V97.2238Z" fill="white"/>
<path d="M22.9829 65.5363C23.8804 65.5363 24.6079 64.8087 24.6079 63.9113C24.6079 63.0138 23.8804 62.2863 22.9829 62.2863C22.0854 62.2863 21.3579 63.0138 21.3579 63.9113C21.3579 64.8087 22.0854 65.5363 22.9829 65.5363Z" fill="white"/>
<path d="M22.9829 98.0363C23.8804 98.0363 24.6079 97.3087 24.6079 96.4113C24.6079 95.5138 23.8804 94.7863 22.9829 94.7863C22.0854 94.7863 21.3579 95.5138 21.3579 96.4113C21.3579 97.3087 22.0854 98.0363 22.9829 98.0363Z" fill="white"/>
<path d="M81.4829 65.5363C82.3804 65.5363 83.1079 64.8087 83.1079 63.9113C83.1079 63.0138 82.3804 62.2863 81.4829 62.2863C80.5854 62.2863 79.8579 63.0138 79.8579 63.9113C79.8579 64.8087 80.5854 65.5363 81.4829 65.5363Z" fill="white"/>
<path d="M81.4829 98.0363C82.3804 98.0363 83.1079 97.3087 83.1079 96.4113C83.1079 95.5138 82.3804 94.7863 81.4829 94.7863C80.5854 94.7863 79.8579 95.5138 79.8579 96.4113C79.8579 97.3087 80.5854 98.0363 81.4829 98.0363Z" fill="white"/>
<path d="M52.2329 68.7863C50.5276 68.7863 48.8655 69.3228 47.4821 70.3199C46.0987 71.317 45.0641 72.7241 44.5249 74.3419C43.9856 75.9597 43.969 77.7061 44.4775 79.3339C44.986 80.9616 45.9937 82.3881 47.3579 83.4113V89.9113C47.3579 91.2042 47.8715 92.4442 48.7858 93.3584C49.7 94.2726 50.94 94.7863 52.2329 94.7863C53.5258 94.7863 54.7658 94.2726 55.68 93.3584C56.5943 92.4442 57.1079 91.2042 57.1079 89.9113V83.4113C58.4721 82.3881 59.4799 80.9616 59.9883 79.3339C60.4968 77.7061 60.4802 75.9597 59.941 74.3419C59.4017 72.7241 58.3671 71.317 56.9837 70.3199C55.6003 69.3228 53.9382 68.7863 52.2329 68.7863ZM54.6692 81.1363C54.4226 81.2789 54.2179 81.4838 54.0755 81.7305C53.9331 81.9772 53.8581 82.257 53.8579 82.5419V89.9113C53.8579 90.3422 53.6867 90.7556 53.382 91.0603C53.0772 91.3651 52.6639 91.5363 52.2329 91.5363C51.8019 91.5363 51.3886 91.3651 51.0839 91.0603C50.7791 90.7556 50.6079 90.3422 50.6079 89.9113V82.5419C50.6079 82.2569 50.533 81.9769 50.3906 81.73C50.2482 81.4831 50.0433 81.278 49.7966 81.1352C48.867 80.5989 48.1403 79.7707 47.7294 78.7792C47.3185 77.7877 47.2462 76.6883 47.5238 75.6516C47.8015 74.6149 48.4135 73.6987 49.2649 73.0453C50.1164 72.3918 51.1596 72.0377 52.2329 72.0377C53.3062 72.0377 54.3495 72.3918 55.2009 73.0453C56.0523 73.6987 56.6643 74.6149 56.942 75.6516C57.2196 76.6883 57.1474 77.7877 56.7364 78.7792C56.3255 79.7707 55.5988 80.5989 54.6692 81.1352V81.1363Z" fill="white"/>
</svg>
