<svg width="142" height="92" viewBox="0 0 142 92" fill="none" xmlns="http://www.w3.org/2000/svg">
<g filter="url(#filter0_d)">
<path d="M39.5908 49.2869H45.0723V52.5147H39.5908V49.2869Z" fill="#4C3B54"/>
<path d="M109.198 11.5987V52.4563C109.197 52.6582 109.158 52.8582 109.08 53.0447C109.003 53.2313 108.89 53.4007 108.747 53.5434C108.604 53.6862 108.434 53.7993 108.248 53.8764C108.061 53.9536 107.861 53.9932 107.659 53.993H45.2857C44.8782 53.993 44.4873 53.8311 44.1991 53.5429C43.9109 53.2547 43.749 52.8638 43.749 52.4563V13.9047C43.7489 13.4002 43.8481 12.9006 44.0411 12.4345C44.234 11.9683 44.5169 11.5447 44.8736 11.1879C45.2302 10.8311 45.6537 10.548 46.1197 10.3548C46.5858 10.1616 47.0853 10.0621 47.5898 10.062H107.659C107.861 10.0618 108.061 10.1014 108.248 10.1785C108.434 10.2557 108.604 10.3688 108.747 10.5115C108.89 10.6543 109.003 10.8237 109.08 11.0103C109.158 11.1968 109.197 11.3968 109.198 11.5987Z" fill="#E5E5E5"/>
<path d="M109.198 50.1504V52.4564C109.197 52.6583 109.158 52.8583 109.08 53.0448C109.003 53.2314 108.89 53.4008 108.747 53.5436C108.604 53.6863 108.434 53.7994 108.248 53.8766C108.061 53.9537 107.861 53.9933 107.659 53.9931H45.2857C44.8782 53.9931 44.4873 53.8312 44.1991 53.543C43.9109 53.2548 43.749 52.8639 43.749 52.4564V50.1504H109.198Z" fill="#52405B"/>
<path d="M84.7342 59.4034C88.1553 59.4034 90.9288 56.6299 90.9288 53.2088C90.9288 49.7876 88.1553 47.0142 84.7342 47.0142C81.313 47.0142 78.5396 49.7876 78.5396 53.2088C78.5396 56.6299 81.313 59.4034 84.7342 59.4034Z" fill="#584360"/>
<path d="M84.7345 55.0498C85.7514 55.0498 86.5757 54.2255 86.5757 53.2086C86.5757 52.1918 85.7514 51.3674 84.7345 51.3674C83.7176 51.3674 82.8933 52.1918 82.8933 53.2086C82.8933 54.2255 83.7176 55.0498 84.7345 55.0498Z" fill="#E5E5E5"/>
<path d="M40.8985 24.0397V50.9013H15.5156C15.4661 50.6542 15.4414 50.4028 15.4419 50.1509V45.5843C15.4404 43.9706 15.5516 42.3588 15.7746 40.7606C16.4153 36.1959 18.0125 31.7767 20.774 28.106C22.8816 25.3048 27.1042 20.7571 32.1225 20.7571H37.6153C38.0464 20.757 38.4733 20.8419 38.8717 21.0068C39.27 21.1718 39.6319 21.4136 39.9368 21.7184C40.2417 22.0232 40.4835 22.3851 40.6485 22.7834C40.8135 23.1817 40.8985 23.6086 40.8985 24.0397Z" fill="#E5E5E5"/>
<path d="M40.8985 50.1504V52.4564C40.8985 52.8639 40.7366 53.2548 40.4484 53.543C40.1602 53.8312 39.7694 53.9931 39.3618 53.9931H19.2846C18.3958 53.9927 17.5345 53.6844 16.8474 53.1206C16.1602 52.5569 15.6896 51.7724 15.5156 50.9008C15.4661 50.6537 15.4414 50.4024 15.4419 50.1504H40.8985Z" fill="#52405B"/>
<path d="M23.6129 35.4854H35.7951C36.2027 35.4854 36.5936 35.3234 36.8818 35.0352C37.1701 34.747 37.332 34.3561 37.332 33.9485V25.8794C37.332 25.4718 37.1701 25.0809 36.8818 24.7927C36.5936 24.5045 36.2027 24.3425 35.7951 24.3425H34.2493C25.965 24.3425 23.1473 31.8032 22.6139 33.3605C22.2671 34.3732 22.5884 35.4854 23.6129 35.4854Z" fill="#584360"/>
<path d="M32.4783 59.4034C35.8995 59.4034 38.6729 56.6299 38.6729 53.2088C38.6729 49.7876 35.8995 47.0142 32.4783 47.0142C29.0571 47.0142 26.2837 49.7876 26.2837 53.2088C26.2837 56.6299 29.0571 59.4034 32.4783 59.4034Z" fill="#584360"/>
<path d="M32.4779 55.0498C33.4948 55.0498 34.3191 54.2255 34.3191 53.2086C34.3191 52.1918 33.4948 51.3674 32.4779 51.3674C31.4611 51.3674 30.6367 52.1918 30.6367 53.2086C30.6367 54.2255 31.4611 55.0498 32.4779 55.0498Z" fill="#E5E5E5"/>
<path d="M19.5398 43.346C19.2616 43.8937 18.8944 44.3913 18.4529 44.8184C17.3963 45.8448 15.4419 46.9335 15.4419 46.9335V45.5839C15.4404 43.9703 15.5516 42.3585 15.7746 40.7603H17.9275C18.2327 40.7591 18.5333 40.836 18.8005 40.9836C19.0677 41.1312 19.2928 41.3447 19.4543 41.6038C19.6158 41.8628 19.7085 42.1589 19.7234 42.4638C19.7384 42.7687 19.6752 43.0724 19.5398 43.346Z" fill="#F5F6F7"/>
<path d="M37.1049 39.4186H35.0754C34.8749 39.4186 34.6826 39.339 34.5408 39.1972C34.399 39.0554 34.3193 38.8631 34.3193 38.6626C34.3193 38.462 34.399 38.2697 34.5408 38.1279C34.6826 37.9861 34.8749 37.9065 35.0754 37.9065H37.1049C37.3054 37.9065 37.4977 37.9861 37.6395 38.1279C37.7813 38.2697 37.8609 38.462 37.8609 38.6626C37.8609 38.8631 37.7813 39.0554 37.6395 39.1972C37.4977 39.339 37.3054 39.4186 37.1049 39.4186Z" fill="#584360"/>
<path d="M123.122 38.4785V60.095C123.122 60.3996 123.038 60.6983 122.881 60.9591C122.724 61.2198 122.498 61.4326 122.229 61.5745L103.789 71.2904C103.549 71.4187 103.28 71.4859 103.007 71.4859C102.735 71.4859 102.466 71.4187 102.226 71.2904L83.7863 61.5745C83.5168 61.4326 83.2912 61.2198 83.1339 60.9591C82.9765 60.6983 82.8933 60.3996 82.8933 60.095V38.4785C82.8933 38.1739 82.9765 37.8752 83.1339 37.6144C83.2912 37.3537 83.5168 37.1409 83.7863 36.9991L102.226 27.2831C102.466 27.1548 102.735 27.0876 103.007 27.0876C103.28 27.0876 103.549 27.1548 103.789 27.2831L109.627 30.357L115.487 33.4461L122.229 36.9991C122.498 37.1409 122.724 37.3537 122.881 37.6144C123.038 37.8752 123.122 38.1739 123.122 38.4785Z" fill="#FFB45A"/>
<path d="M120.052 67.6105C119.448 67.6121 118.859 67.4303 118.361 67.0893C115.605 65.2001 115.004 64.2638 114.806 63.9564C114.584 63.6115 114.171 62.9676 113.563 57.8206C113.488 57.12 113.658 56.4149 114.046 55.8261C114.433 55.2373 115.012 54.8013 115.686 54.5927C117.09 54.1395 118.557 53.9067 120.033 53.9028H120.071C121.547 53.9068 123.014 54.1395 124.419 54.5927C125.092 54.8016 125.672 55.2378 126.059 55.8269C126.446 56.4159 126.616 57.1211 126.541 57.8218C125.933 62.968 125.52 63.6092 125.298 63.9564C125.1 64.263 124.498 65.2013 121.74 67.0897C121.243 67.4303 120.654 67.612 120.052 67.6105Z" fill="#5C8EFF"/>
<path d="M119.711 61.937C119.491 61.9374 119.272 61.8941 119.068 61.8097C118.864 61.7254 118.679 61.6015 118.523 61.4453L117.973 60.8961C117.92 60.8427 117.878 60.7793 117.849 60.7096C117.82 60.6398 117.805 60.5651 117.805 60.4896C117.805 60.4141 117.82 60.3393 117.849 60.2695C117.878 60.1998 117.92 60.1364 117.973 60.083C118.027 60.0296 118.09 59.9872 118.16 59.9583C118.229 59.9294 118.304 59.9145 118.38 59.9145C118.455 59.9145 118.53 59.9293 118.6 59.9582C118.67 59.9871 118.733 60.0294 118.786 60.0828L119.335 60.6316C119.385 60.6815 119.444 60.7211 119.509 60.7481C119.574 60.7751 119.644 60.789 119.714 60.789C119.785 60.789 119.855 60.7751 119.92 60.7481C119.985 60.7211 120.044 60.6815 120.094 60.6316L125.36 55.0696C125.412 55.0142 125.474 54.9697 125.543 54.9385C125.612 54.9073 125.687 54.89 125.763 54.8877C125.838 54.8854 125.914 54.8981 125.985 54.9251C126.056 54.9521 126.12 54.9928 126.175 55.045C126.23 55.0971 126.275 55.1596 126.305 55.2288C126.336 55.2981 126.353 55.3728 126.355 55.4486C126.357 55.5243 126.343 55.5997 126.316 55.6704C126.289 55.741 126.247 55.8056 126.195 55.8603L120.918 61.4331C120.76 61.5925 120.572 61.7191 120.365 61.8056C120.158 61.8921 119.936 61.9368 119.711 61.937Z" fill="#4856B5"/>
<path d="M103.008 48.0221C102.655 48.0224 102.306 47.9396 101.991 47.7802L83.4522 38.4319C83.319 38.3615 83.2187 38.2417 83.173 38.0982C83.1272 37.9547 83.1395 37.799 83.2074 37.6645C83.2752 37.5301 83.3931 37.4276 83.5357 37.3791C83.6784 37.3307 83.8343 37.3401 83.97 37.4055L102.509 46.7535C102.664 46.8313 102.834 46.8719 103.008 46.8719C103.181 46.8719 103.351 46.8313 103.506 46.7535L122.034 37.3752C122.17 37.3062 122.328 37.2941 122.473 37.3415C122.618 37.389 122.739 37.4922 122.808 37.6283C122.877 37.7645 122.889 37.9225 122.841 38.0676C122.794 38.2127 122.691 38.3329 122.554 38.402L104.025 47.7795C103.709 47.9392 103.361 48.0223 103.008 48.0221Z" fill="#F7ECDA"/>
<path d="M103.008 71.437C102.855 71.437 102.709 71.3764 102.601 71.2686C102.493 71.1608 102.433 71.0145 102.433 70.8621V47.4472C102.433 47.2947 102.493 47.1485 102.601 47.0407C102.709 46.9329 102.855 46.8723 103.008 46.8723C103.16 46.8723 103.306 46.9329 103.414 47.0407C103.522 47.1485 103.582 47.2947 103.582 47.4472V70.8621C103.582 71.0145 103.522 71.1608 103.414 71.2686C103.306 71.3764 103.16 71.437 103.008 71.437Z" fill="#F7ECDA"/>
<path d="M115.487 33.4464L96.1584 43.2313C95.8818 43.3709 95.6493 43.5845 95.4869 43.8484C95.3244 44.1123 95.2385 44.4162 95.2386 44.726V53.3957C95.2383 53.563 95.1879 53.7265 95.094 53.865C95.0001 54.0035 94.8669 54.1107 94.7115 54.173C94.5562 54.2352 94.3858 54.2495 94.2222 54.2142C94.0586 54.1788 93.9094 54.0953 93.7936 53.9744L92.1341 52.242C92.0358 52.1388 91.9126 52.0627 91.7762 52.021C91.6399 51.9794 91.4952 51.9737 91.356 52.0044L90.2714 52.2382C90.1492 52.2641 90.0229 52.2624 89.9015 52.2332C89.7801 52.204 89.6668 52.1481 89.5698 52.0695C89.4728 51.9909 89.3946 51.8916 89.3409 51.7788C89.2872 51.6661 89.2594 51.5428 89.2595 51.418V41.6982C89.2587 41.3886 89.3439 41.0849 89.5057 40.821C89.6674 40.557 89.8993 40.3432 90.1755 40.2034L109.627 30.3572L115.487 33.4464Z" fill="#F7ECDA"/>
</g>
<defs>
<filter id="filter0_d" x="0.724255" y="0.250252" width="140.552" height="90.8591" filterUnits="userSpaceOnUse" color-interpolation-filters="sRGB">
<feFlood flood-opacity="0" result="BackgroundImageFix"/>
<feColorMatrix in="SourceAlpha" type="matrix" values="0 0 0 0 0 0 0 0 0 0 0 0 0 0 0 0 0 0 127 0"/>
<feOffset dy="4.90588"/>
<feGaussianBlur stdDeviation="7.35882"/>
<feColorMatrix type="matrix" values="0 0 0 0 0 0 0 0 0 0 0 0 0 0 0 0 0 0 0.15 0"/>
<feBlend mode="normal" in2="BackgroundImageFix" result="effect1_dropShadow"/>
<feBlend mode="normal" in="SourceGraphic" in2="effect1_dropShadow" result="shape"/>
</filter>
</defs>
</svg>
