<svg width="105" height="105" viewBox="0 0 105 105" fill="none" xmlns="http://www.w3.org/2000/svg">
<path d="M88.25 26.062C88.2042 25.6009 87.9902 25.1728 87.6488 24.8595L73.2838 13.4845C73.0025 13.2281 72.6402 13.0786 72.26 13.062H32.74C32.3735 13.0641 32.0184 13.1901 31.7325 13.4195L17.3675 24.7945C17.1818 24.951 17.0309 25.1446 16.9245 25.3629C16.8182 25.5812 16.7587 25.8193 16.75 26.062V81.312C16.75 81.743 16.9212 82.1563 17.226 82.4611C17.5307 82.7658 17.944 82.937 18.375 82.937H38.9638C39.3947 82.937 39.8081 82.7658 40.1128 82.4611C40.4175 82.1563 40.5888 81.743 40.5888 81.312C40.5888 80.881 40.4175 80.4677 40.1128 80.163C39.8081 79.8582 39.3947 79.687 38.9638 79.687H20V27.687H42.75V40.687C42.75 41.118 42.9212 41.5313 43.226 41.8361C43.5307 42.1408 43.944 42.312 44.375 42.312H60.625C61.056 42.312 61.4693 42.1408 61.774 41.8361C62.0788 41.5313 62.25 41.118 62.25 40.687V27.687H85V79.687H66.0363C65.6053 79.687 65.1919 79.8582 64.8872 80.163C64.5825 80.4677 64.4113 80.881 64.4113 81.312C64.4113 81.743 64.5825 82.1563 64.8872 82.4611C65.1919 82.7658 65.6053 82.937 66.0363 82.937H86.625C87.056 82.937 87.4693 82.7658 87.774 82.4611C88.0788 82.1563 88.25 81.743 88.25 81.312V26.062ZM56.1562 16.312L58.4637 24.437H46.5362L48.8438 16.312H56.1562ZM33.3088 16.312H45.4638L43.1562 24.437H23.0387L33.3088 16.312ZM59 39.062H46V27.687H59V39.062ZM61.8438 24.437L59.5363 16.312H71.6913L81.9613 24.437H61.8438Z" fill="white"/>
<path d="M67.8073 70.587C67.9359 70.2942 67.9752 69.9699 67.9202 69.6548C67.8653 69.3397 67.7186 69.0479 67.4986 68.8158L53.6861 54.1908C53.5341 54.0284 53.3504 53.899 53.1463 53.8105C52.9423 53.722 52.7222 53.6764 52.4998 53.6764C52.2774 53.6764 52.0574 53.722 51.8533 53.8105C51.6493 53.899 51.4656 54.0284 51.3136 54.1908L37.5011 68.8158C37.281 69.0466 37.1337 69.3372 37.0776 69.6511C37.0215 69.9651 37.059 70.2886 37.1855 70.5814C37.3119 70.8742 37.5218 71.1234 37.7889 71.2977C38.0559 71.4721 38.3684 71.564 38.6873 71.562H45.2848L42.7498 89.2095C42.7151 89.4403 42.7305 89.6759 42.795 89.9003C42.8595 90.1246 42.9716 90.3324 43.1236 90.5095C43.2795 90.687 43.4722 90.8284 43.6883 90.9238C43.9043 91.0193 44.1387 91.0664 44.3748 91.062H60.6248C60.8583 91.0641 61.0895 91.0158 61.3026 90.9204C61.5157 90.8251 61.7058 90.6849 61.8598 90.5095C62.0118 90.3324 62.1239 90.1246 62.1884 89.9003C62.2529 89.6759 62.2683 89.4403 62.2336 89.2095L59.7148 71.562H66.3123C66.6295 71.5631 66.94 71.4714 67.2057 71.2982C67.4713 71.1249 67.6805 70.8777 67.8073 70.587ZM57.8461 68.312C57.6126 68.31 57.3815 68.3583 57.1684 68.4536C56.9552 68.549 56.7652 68.6891 56.6111 68.8645C56.4591 69.0417 56.347 69.2495 56.2825 69.4738C56.218 69.6981 56.2026 69.9337 56.2373 70.1645L58.7561 87.812H46.2436L48.7623 70.1645C48.7971 69.9337 48.7817 69.6981 48.7172 69.4738C48.6527 69.2495 48.5406 69.0417 48.3886 68.8645C48.2345 68.6891 48.0444 68.549 47.8313 68.4536C47.6182 68.3583 47.387 68.31 47.1536 68.312H42.4573L52.4998 57.6845L62.5423 68.312H57.8461Z" fill="white"/>
<path d="M60.625 92.687H44.375C43.944 92.687 43.5307 92.8582 43.226 93.163C42.9212 93.4677 42.75 93.881 42.75 94.312C42.75 94.743 42.9212 95.1563 43.226 95.4611C43.5307 95.7658 43.944 95.937 44.375 95.937H60.625C61.056 95.937 61.4693 95.7658 61.774 95.4611C62.0788 95.1563 62.25 94.743 62.25 94.312C62.25 93.881 62.0788 93.4677 61.774 93.163C61.4693 92.8582 61.056 92.687 60.625 92.687Z" fill="white"/>
</svg>
