<svg width="134" height="95" viewBox="0 0 134 95" fill="none" xmlns="http://www.w3.org/2000/svg">
<g filter="url(#filter0_d)">
<path d="M66.9524 38.7173H112.073C113.358 38.7173 114.399 39.7591 114.399 41.0443V72.2024C114.399 73.4147 113.417 74.3976 112.204 74.3976H66.9524C65.7402 74.3976 64.7573 73.4148 64.7573 72.2024V40.9123C64.7573 39.7 65.7402 38.7173 66.9524 38.7173Z" fill="#FFCB5B"/>
<path d="M113.624 42.2622L91.9055 54.4942C90.4893 55.2902 88.7606 55.2902 87.3446 54.4942L65.533 42.2622C65.0511 41.984 64.7551 41.4689 64.7573 40.9125C64.7573 39.7001 65.7401 38.7173 66.9525 38.7173H112.204C113.417 38.7173 114.4 39.7 114.4 40.9124C114.402 41.4688 114.106 41.9839 113.624 42.2622Z" fill="#FFDB6F"/>
<path d="M114.399 40.9668C114.383 41.5037 114.089 41.9938 113.624 42.2622L91.9054 54.4942C90.4893 55.2902 88.7606 55.2902 87.3446 54.4942L65.533 42.2622C65.0676 41.9938 64.7741 41.5037 64.7573 40.9668V41.0444V42.5957C64.7563 43.1317 65.0319 43.6302 65.4864 43.9143L87.1118 57.4263C88.6041 58.2783 89.5403 59.8504 89.5784 61.5683V66.5869C89.5784 69.1872 87.4704 71.2951 84.8701 71.2951H71.7384C70.0247 71.2951 68.6357 72.6842 68.6357 74.3978H112.204C113.417 74.3978 114.4 73.415 114.4 72.2026V41.0444C114.4 41.0444 114.399 40.9978 114.399 40.9668Z" fill="#F7B84E"/>
<path d="M91.859 54.5022C90.4428 55.2982 88.7141 55.2982 87.2981 54.5022L65.5796 42.301C65.6598 42.3768 65.7454 42.4468 65.8356 42.5105L87.1042 55.6967C88.6077 56.6303 90.5106 56.6303 92.014 55.6967L113.283 42.5105C113.373 42.4468 113.458 42.3768 113.539 42.301L91.859 54.5022Z" fill="#F19920"/>
<path d="M85.3046 48.9017L79.1924 45.5042C78.4427 45.0897 78.171 44.1458 78.5856 43.396C78.8631 42.8941 79.3948 42.5863 79.9681 42.5955H80.2706C80.699 42.5955 81.0463 42.2482 81.0463 41.8199C81.0463 41.3915 80.699 41.0442 80.2706 41.0442H70.9628C70.6846 41.0431 70.4271 41.1911 70.2879 41.432C70.0802 41.8067 70.2153 42.2788 70.5899 42.4866C70.5901 42.4867 70.5903 42.4868 70.5905 42.4869L84.5523 50.2435C84.8959 50.4994 85.3819 50.4282 85.6377 50.0846C85.8936 49.7411 85.8224 49.255 85.4788 48.9993C85.4251 48.9593 85.3666 48.9266 85.3046 48.9017Z" fill="#FFE278"/>
<path d="M83.3733 41.0442H88.0273C88.4556 41.0442 88.8029 41.3915 88.8029 41.8198C88.8029 42.2482 88.4556 42.5955 88.0273 42.5955H83.3733C82.945 42.5955 82.5977 42.2482 82.5977 41.8198C82.5977 41.3914 82.945 41.0442 83.3733 41.0442Z" fill="#FFE278"/>
<path d="M103.54 60.4355C100.97 60.4355 98.8865 62.5192 98.8865 65.0895C98.8865 67.6598 100.97 69.7435 103.54 69.7435C106.111 69.7435 108.194 67.6599 108.194 65.0895C108.194 62.5193 106.111 60.4355 103.54 60.4355ZM103.54 68.1922C101.827 68.1922 100.438 66.8031 100.438 65.0896C100.438 63.3761 101.827 61.987 103.54 61.987C105.254 61.987 106.643 63.3761 106.643 65.0896C106.643 66.8031 105.254 68.1922 103.54 68.1922Z" fill="#B06328"/>
<path d="M96.0708 67.5794C94.9756 68.3876 93.4816 68.3876 92.3865 67.5794C90.7239 66.3189 88.4256 66.3189 86.763 67.5794C86.4372 67.8576 86.3986 68.3473 86.6768 68.6729C86.9427 68.9845 87.4051 69.0355 87.7325 68.7894C88.8277 67.9812 90.3217 67.9812 91.4168 68.7894C93.0795 70.0499 95.3777 70.0499 97.0404 68.7894C97.3661 68.5112 97.4047 68.0216 97.1266 67.6959C96.8606 67.3844 96.3982 67.3334 96.0708 67.5794Z" fill="#B06328"/>
<path d="M96.0708 64.4769C94.9757 65.285 93.4816 65.285 92.3865 64.4769C90.7239 63.2164 88.4256 63.2164 86.763 64.4769C86.4372 64.7551 86.3986 65.2447 86.6768 65.5704C86.9427 65.8819 87.4051 65.9329 87.7325 65.6868C88.8277 64.8787 90.3217 64.8787 91.4168 65.6868C93.0795 66.9474 95.3777 66.9474 97.0404 65.6868C97.3828 65.4296 97.4519 64.9433 97.1946 64.6008C96.9374 64.2584 96.4511 64.1892 96.1086 64.4466C96.0956 64.4563 96.083 64.4664 96.0708 64.4769Z" fill="#B06328"/>
<path d="M96.0708 61.3741C94.9757 62.1823 93.4816 62.1823 92.3865 61.3741C90.7239 60.1136 88.4256 60.1136 86.763 61.3741C86.4372 61.6523 86.3986 62.1419 86.6768 62.4676C86.9427 62.7791 87.4051 62.8301 87.7325 62.5841C88.8277 61.7759 90.3217 61.7759 91.4168 62.5841C93.0795 63.8446 95.3777 63.8446 97.0404 62.5841C97.3828 62.3268 97.4519 61.8405 97.1946 61.498C96.9374 61.1556 96.4511 61.0864 96.1086 61.3438C96.0956 61.3536 96.083 61.3637 96.0708 61.3741Z" fill="#B06328"/>
<path d="M103.54 66.6334C104.397 66.6334 105.091 65.9389 105.091 65.0821C105.091 64.2253 104.397 63.5308 103.54 63.5308C102.683 63.5308 101.989 64.2253 101.989 65.0821C101.989 65.9389 102.683 66.6334 103.54 66.6334Z" fill="#B06328"/>
<path d="M40.1897 21.9329C37.9388 21.1157 33.278 20.6509 31.3151 20.5583C28.4553 20.4234 27.4481 22.0192 28.5759 23.0483C29.5593 23.8015 33.7342 26.147 37.614 28.2793L52.5965 27.5461C48.2534 25.4592 43.1517 23.0084 40.1897 21.9329Z" fill="#D3D3D3"/>
<path d="M119.125 12.0208C116.315 17.236 108.299 32.0678 103.444 40.4998C102.288 42.5097 100.665 44.2125 98.7138 45.4649C96.7623 46.7173 94.5384 47.4826 92.2295 47.6965C81.2805 48.702 61.1218 49.2416 44.3674 49.3808C43.6444 49.3871 42.9277 49.3913 42.2194 49.3976C28.7324 49.4862 17.9037 49.307 16.7 48.9001C15.157 48.3774 14.3433 46.6973 14.8956 45.0109C15.5575 42.9914 27.2105 29.1504 40.358 27.8223C56.9943 26.1422 91.7446 28.6128 97.9337 28.7477H97.9632C98.2405 28.749 98.5147 28.689 98.7661 28.572C99.0176 28.455 99.2401 28.284 99.4177 28.0711L99.4451 28.0373L114.024 10.6C114.144 10.4567 114.293 10.3414 114.462 10.2624C114.631 10.1833 114.816 10.1424 115.002 10.1426H118.002C118.222 10.1423 118.439 10.1993 118.631 10.308C118.823 10.4167 118.984 10.5734 119.097 10.7627C119.21 10.952 119.272 11.1674 119.277 11.388C119.282 11.6085 119.23 11.8266 119.125 12.0208Z" fill="#E5E5E5"/>
<path d="M119.125 12.0208C116.315 17.236 108.299 32.0678 103.444 40.4998C102.288 42.5098 100.665 44.2126 98.7138 45.4649C96.7622 46.7173 94.5384 47.4826 92.2294 47.6965C80.9938 48.7273 60.0614 49.2691 43.0625 49.3913L47.5062 45.5717C52.2049 41.5327 58.5605 39.781 64.758 39.7409L89.7778 39.0853C94.6747 38.63 100.018 34.3192 98.7853 28.5622C99.0284 28.4451 99.244 28.2777 99.4177 28.0711L114.024 10.6C114.143 10.4567 114.293 10.3414 114.462 10.2624C114.631 10.1833 114.815 10.1424 115.002 10.1426H118.002C118.222 10.1423 118.439 10.1993 118.631 10.308C118.823 10.4167 118.984 10.5734 119.097 10.7627C119.21 10.952 119.272 11.1674 119.277 11.388C119.282 11.6085 119.23 11.8266 119.125 12.0208Z" fill="#4F7DDB"/>
<path d="M58.889 43.3896H71.8915C73.3423 43.3897 74.769 43.7617 76.0352 44.47C76.0352 44.47 90.749 51.4814 92.7572 52.8752C93.9318 53.8506 93.03 55.491 90.1672 55.4891C88.2029 55.4891 83.4958 55.2423 81.2082 54.5311C75.607 52.7888 65.5776 48.4408 58.515 45.3644C57.4785 44.9135 57.7578 43.3896 58.889 43.3896Z" fill="#E5E5E5"/>
<path d="M52.9601 32.0762H51.3414C50.4115 32.0762 49.6577 32.83 49.6577 33.7598V35.3786C49.6577 36.3084 50.4115 37.0622 51.3414 37.0622H52.9601C53.89 37.0622 54.6438 36.3084 54.6438 35.3786V33.7598C54.6438 32.83 53.89 32.0762 52.9601 32.0762Z" fill="#584360"/>
<path d="M63.0736 31.5989H61.4549C60.525 31.5989 59.7712 32.3527 59.7712 33.2825V34.9012C59.7712 35.8311 60.525 36.5849 61.4549 36.5849H63.0736C64.0035 36.5849 64.7573 35.8311 64.7573 34.9012V33.2825C64.7573 32.3527 64.0035 31.5989 63.0736 31.5989Z" fill="#584360"/>
<path d="M73.1874 31.1216H71.5687C70.6388 31.1216 69.885 31.8754 69.885 32.8052V34.424C69.885 35.3538 70.6388 36.1076 71.5687 36.1076H73.1874C74.1172 36.1076 74.871 35.3538 74.871 34.424V32.8052C74.871 31.8754 74.1172 31.1216 73.1874 31.1216Z" fill="#584360"/>
<path d="M83.3009 30.644H81.6822C80.7523 30.644 79.9985 31.3978 79.9985 32.3277V33.9464C79.9985 34.8763 80.7523 35.63 81.6822 35.63H83.3009C84.2308 35.63 84.9846 34.8763 84.9846 33.9464V32.3277C84.9846 31.3978 84.2308 30.644 83.3009 30.644Z" fill="#584360"/>
<path d="M36.258 32.7104H27.6025C25.527 34.0625 23.5573 35.5705 21.7107 37.2216C22.4801 38.3768 32.5352 39.2558 36.8609 37.3502C39.4115 36.2266 38.0645 32.7104 36.258 32.7104Z" fill="#584360"/>
<path d="M40.6767 45.5084C40.5323 45.5083 40.3904 45.4711 40.2646 45.4005C40.1387 45.3299 40.0331 45.2281 39.9578 45.105C39.8825 44.9819 39.8401 44.8415 39.8346 44.6973C39.8291 44.553 39.8607 44.4098 39.9264 44.2813C41.8491 40.5177 43.494 35.1735 43.51 35.1199C43.5424 35.014 43.5954 34.9156 43.6659 34.8301C43.7364 34.7447 43.823 34.674 43.9208 34.622C44.0186 34.5701 44.1257 34.5379 44.2359 34.5273C44.3461 34.5167 44.4574 34.528 44.5633 34.5604C44.6692 34.5928 44.7677 34.6457 44.8531 34.7162C44.9385 34.7867 45.0093 34.8733 45.0612 34.9711C45.1132 35.0689 45.1454 35.176 45.1559 35.2862C45.1665 35.3965 45.1553 35.5077 45.1229 35.6136C45.0541 35.8379 43.419 41.1509 41.4282 45.0484C41.3575 45.1869 41.2499 45.3032 41.1173 45.3844C40.9847 45.4655 40.8322 45.5084 40.6767 45.5084Z" fill="#D3D3D3"/>
<path d="M99.6097 28.3849C99.5833 28.2576 99.5269 28.1383 99.4452 28.0371L99.4178 28.0708C99.2402 28.2837 99.0177 28.4548 98.7662 28.5718C98.5148 28.6887 98.2406 28.7487 97.9633 28.7475C98.1733 29.7139 98.1712 30.7143 97.9572 31.6798C97.7432 32.6452 97.3224 33.5528 96.7238 34.34C95.1702 36.4543 92.4277 37.9826 89.7274 38.244L64.7519 38.8975C57.7512 38.9418 51.4314 41.0856 46.9562 44.9327L42.5125 48.7523C42.4199 48.8323 42.3458 48.9314 42.2952 49.0427C42.2446 49.1541 42.2188 49.2751 42.2195 49.3974C42.9278 49.3911 43.6445 49.3868 44.3675 49.3805L48.0565 46.2101C52.2283 42.6244 58.1623 40.626 64.7793 40.5839L89.7991 39.9283C89.8181 39.9279 89.8371 39.9265 89.856 39.9241C93.0728 39.6247 96.2242 37.8688 98.0814 35.3392C98.8258 34.3605 99.3481 33.2315 99.612 32.0305C99.8759 30.8296 99.8751 29.5855 99.6097 28.3849Z" fill="white"/>
</g>
<defs>
<filter id="filter0_d" x="0.00477219" y="0.330818" width="133.99" height="93.6905" filterUnits="userSpaceOnUse" color-interpolation-filters="sRGB">
<feFlood flood-opacity="0" result="BackgroundImageFix"/>
<feColorMatrix in="SourceAlpha" type="matrix" values="0 0 0 0 0 0 0 0 0 0 0 0 0 0 0 0 0 0 127 0"/>
<feOffset dy="4.90588"/>
<feGaussianBlur stdDeviation="7.35882"/>
<feColorMatrix type="matrix" values="0 0 0 0 0 0 0 0 0 0 0 0 0 0 0 0 0 0 0.15 0"/>
<feBlend mode="normal" in2="BackgroundImageFix" result="effect1_dropShadow"/>
<feBlend mode="normal" in="SourceGraphic" in2="effect1_dropShadow" result="shape"/>
</filter>
</defs>
</svg>
